<?xml version="1.0" standalone="no"?><!-- Generator: Gravit.io --><svg xmlns="http://www.w3.org/2000/svg" xmlns:xlink="http://www.w3.org/1999/xlink" style="isolation:isolate" viewBox="0 0 149 229" width="149" height="229"><defs><clipPath id="_clipPath_fq9NaHw9oX6BGM5q4hm6kaSjIWD7uXOr"><rect width="149" height="229"/></clipPath></defs><g clip-path="url(#_clipPath_fq9NaHw9oX6BGM5q4hm6kaSjIWD7uXOr)"><clipPath id="_clipPath_3Noa9avzZRu3dAXg6QbuAuDm5Yp9VwDC"><rect x="0" y="0" width="149" height="229" transform="matrix(1,0,0,1,0,0)" fill="rgb(255,255,255)"/></clipPath><g clip-path="url(#_clipPath_3Noa9avzZRu3dAXg6QbuAuDm5Yp9VwDC)"><g><path d=" M 77.386 123.895 L 77.386 122.41 L 82.239 122.41 L 82.239 129.354 L 82.239 129.354 Q 81.106 129.715 79.935 129.901 L 79.935 129.901 L 79.935 129.901 Q 78.763 130.086 77.22 130.086 L 77.22 130.086 L 77.22 130.086 Q 73.978 130.086 72.171 128.157 L 72.171 128.157 L 72.171 128.157 Q 70.364 126.229 70.364 122.752 L 70.364 122.752 L 70.364 122.752 Q 70.364 120.526 71.258 118.851 L 71.258 118.851 L 71.258 118.851 Q 72.151 117.176 73.831 116.292 L 73.831 116.292 L 73.831 116.292 Q 75.511 115.408 77.767 115.408 L 77.767 115.408 L 77.767 115.408 Q 80.052 115.408 82.024 116.248 L 82.024 116.248 L 81.38 117.713 L 81.38 117.713 Q 79.446 116.893 77.659 116.893 L 77.659 116.893 L 77.659 116.893 Q 75.052 116.893 73.587 118.446 L 73.587 118.446 L 73.587 118.446 Q 72.122 119.998 72.122 122.752 L 72.122 122.752 L 72.122 122.752 Q 72.122 125.643 73.533 127.137 L 73.533 127.137 L 73.533 127.137 Q 74.944 128.631 77.679 128.631 L 77.679 128.631 L 77.679 128.631 Q 79.163 128.631 80.579 128.289 L 80.579 128.289 L 80.579 123.895 L 77.386 123.895 L 77.386 123.895 Z  M 90.306 118.992 L 90.306 118.992 L 90.306 118.992 Q 91.019 118.992 91.585 119.11 L 91.585 119.11 L 91.36 120.614 L 91.36 120.614 Q 90.696 120.467 90.188 120.467 L 90.188 120.467 L 90.188 120.467 Q 88.89 120.467 87.967 121.522 L 87.967 121.522 L 87.967 121.522 Q 87.044 122.576 87.044 124.149 L 87.044 124.149 L 87.044 129.891 L 85.423 129.891 L 85.423 119.188 L 86.761 119.188 L 86.946 121.17 L 87.024 121.17 L 87.024 121.17 Q 87.62 120.125 88.46 119.559 L 88.46 119.559 L 88.46 119.559 Q 89.3 118.992 90.306 118.992 Z  M 101.37 129.891 L 100.169 129.891 L 99.847 128.367 L 99.769 128.367 L 99.769 128.367 Q 98.968 129.373 98.172 129.73 L 98.172 129.73 L 98.172 129.73 Q 97.376 130.086 96.185 130.086 L 96.185 130.086 L 96.185 130.086 Q 94.593 130.086 93.689 129.266 L 93.689 129.266 L 93.689 129.266 Q 92.786 128.446 92.786 126.932 L 92.786 126.932 L 92.786 126.932 Q 92.786 123.69 97.972 123.533 L 97.972 123.533 L 99.788 123.475 L 99.788 122.811 L 99.788 122.811 Q 99.788 121.551 99.246 120.95 L 99.246 120.95 L 99.246 120.95 Q 98.704 120.35 97.513 120.35 L 97.513 120.35 L 97.513 120.35 Q 96.175 120.35 94.485 121.17 L 94.485 121.17 L 93.987 119.93 L 93.987 119.93 Q 94.778 119.5 95.721 119.256 L 95.721 119.256 L 95.721 119.256 Q 96.663 119.012 97.61 119.012 L 97.61 119.012 L 97.61 119.012 Q 99.524 119.012 100.447 119.862 L 100.447 119.862 L 100.447 119.862 Q 101.37 120.711 101.37 122.586 L 101.37 122.586 L 101.37 129.891 L 101.37 129.891 Z  M 96.507 128.748 L 96.507 128.748 L 96.507 128.748 Q 98.021 128.748 98.885 127.918 L 98.885 127.918 L 98.885 127.918 Q 99.749 127.088 99.749 125.594 L 99.749 125.594 L 99.749 124.627 L 98.128 124.696 L 98.128 124.696 Q 96.194 124.764 95.34 125.296 L 95.34 125.296 L 95.34 125.296 Q 94.485 125.828 94.485 126.951 L 94.485 126.951 L 94.485 126.951 Q 94.485 127.83 95.018 128.289 L 95.018 128.289 L 95.018 128.289 Q 95.55 128.748 96.507 128.748 Z  M 112.21 129.891 L 111.995 128.455 L 111.907 128.455 L 111.907 128.455 Q 110.784 130.086 108.548 130.086 L 108.548 130.086 L 108.548 130.086 Q 106.448 130.086 105.281 128.651 L 105.281 128.651 L 105.281 128.651 Q 104.114 127.215 104.114 124.569 L 104.114 124.569 L 104.114 124.569 Q 104.114 121.922 105.286 120.457 L 105.286 120.457 L 105.286 120.457 Q 106.458 118.992 108.548 118.992 L 108.548 118.992 L 108.548 118.992 Q 110.726 118.992 111.888 120.574 L 111.888 120.574 L 112.015 120.574 L 111.946 119.803 L 111.907 119.051 L 111.907 114.696 L 113.528 114.696 L 113.528 129.891 L 112.21 129.891 L 112.21 129.891 Z  M 108.753 128.729 L 108.753 128.729 L 108.753 128.729 Q 110.413 128.729 111.16 127.825 L 111.16 127.825 L 111.16 127.825 Q 111.907 126.922 111.907 124.91 L 111.907 124.91 L 111.907 124.569 L 111.907 124.569 Q 111.907 122.293 111.15 121.322 L 111.15 121.322 L 111.15 121.322 Q 110.394 120.35 108.733 120.35 L 108.733 120.35 L 108.733 120.35 Q 107.308 120.35 106.551 121.458 L 106.551 121.458 L 106.551 121.458 Q 105.794 122.567 105.794 124.588 L 105.794 124.588 L 105.794 124.588 Q 105.794 126.639 106.546 127.684 L 106.546 127.684 L 106.546 127.684 Q 107.298 128.729 108.753 128.729 Z  M 121.487 130.086 L 121.487 130.086 L 121.487 130.086 Q 119.114 130.086 117.742 128.641 L 117.742 128.641 L 117.742 128.641 Q 116.37 127.196 116.37 124.627 L 116.37 124.627 L 116.37 124.627 Q 116.37 122.039 117.645 120.516 L 117.645 120.516 L 117.645 120.516 Q 118.919 118.992 121.067 118.992 L 121.067 118.992 L 121.067 118.992 Q 123.079 118.992 124.251 120.316 L 124.251 120.316 L 124.251 120.316 Q 125.423 121.639 125.423 123.807 L 125.423 123.807 L 125.423 124.832 L 118.05 124.832 L 118.05 124.832 Q 118.099 126.717 119.002 127.694 L 119.002 127.694 L 119.002 127.694 Q 119.905 128.67 121.546 128.67 L 121.546 128.67 L 121.546 128.67 Q 123.274 128.67 124.964 127.948 L 124.964 127.948 L 124.964 129.393 L 124.964 129.393 Q 124.104 129.764 123.338 129.925 L 123.338 129.925 L 123.338 129.925 Q 122.571 130.086 121.487 130.086 Z  M 121.048 120.35 L 121.048 120.35 L 121.048 120.35 Q 119.759 120.35 118.992 121.19 L 118.992 121.19 L 118.992 121.19 Q 118.226 122.03 118.089 123.514 L 118.089 123.514 L 123.685 123.514 L 123.685 123.514 Q 123.685 121.981 123.001 121.165 L 123.001 121.165 L 123.001 121.165 Q 122.317 120.35 121.048 120.35 Z  M 28.724 115.614 L 28.724 129.891 L 27.142 129.891 L 27.142 119.715 L 27.142 119.715 Q 27.142 118.446 27.22 117.313 L 27.22 117.313 L 27.22 117.313 Q 27.015 117.518 26.761 117.742 L 26.761 117.742 L 26.761 117.742 Q 26.507 117.967 24.437 119.647 L 24.437 119.647 L 23.577 118.533 L 27.356 115.614 L 28.724 115.614 L 28.724 115.614 Z  M 43.616 122.733 L 43.616 122.733 L 43.616 122.733 Q 43.616 126.434 42.449 128.26 L 42.449 128.26 L 42.449 128.26 Q 41.282 130.086 38.88 130.086 L 38.88 130.086 L 38.88 130.086 Q 36.575 130.086 35.374 128.216 L 35.374 128.216 L 35.374 128.216 Q 34.173 126.346 34.173 122.733 L 34.173 122.733 L 34.173 122.733 Q 34.173 119.002 35.335 117.196 L 35.335 117.196 L 35.335 117.196 Q 36.497 115.389 38.88 115.389 L 38.88 115.389 L 38.88 115.389 Q 41.204 115.389 42.41 117.274 L 42.41 117.274 L 42.41 117.274 Q 43.616 119.158 43.616 122.733 Z  M 35.813 122.733 L 35.813 122.733 L 35.813 122.733 Q 35.813 125.848 36.546 127.269 L 36.546 127.269 L 36.546 127.269 Q 37.278 128.69 38.88 128.69 L 38.88 128.69 L 38.88 128.69 Q 40.501 128.69 41.229 127.249 L 41.229 127.249 L 41.229 127.249 Q 41.956 125.809 41.956 122.733 L 41.956 122.733 L 41.956 122.733 Q 41.956 119.656 41.229 118.226 L 41.229 118.226 L 41.229 118.226 Q 40.501 116.795 38.88 116.795 L 38.88 116.795 L 38.88 116.795 Q 37.278 116.795 36.546 118.206 L 36.546 118.206 L 36.546 118.206 Q 35.813 119.617 35.813 122.733 Z  M 49.788 128.748 L 49.788 128.748 L 49.788 128.748 Q 50.218 128.748 50.618 128.685 L 50.618 128.685 L 50.618 128.685 Q 51.019 128.621 51.253 128.553 L 51.253 128.553 L 51.253 129.793 L 51.253 129.793 Q 50.989 129.92 50.477 130.003 L 50.477 130.003 L 50.477 130.003 Q 49.964 130.086 49.554 130.086 L 49.554 130.086 L 49.554 130.086 Q 46.448 130.086 46.448 126.815 L 46.448 126.815 L 46.448 120.448 L 44.915 120.448 L 44.915 119.666 L 46.448 118.992 L 47.132 116.707 L 48.069 116.707 L 48.069 119.188 L 51.175 119.188 L 51.175 120.448 L 48.069 120.448 L 48.069 126.746 L 48.069 126.746 Q 48.069 127.713 48.528 128.231 L 48.528 128.231 L 48.528 128.231 Q 48.987 128.748 49.788 128.748 Z  M 62.337 129.891 L 60.716 129.891 L 60.716 122.967 L 60.716 122.967 Q 60.716 121.658 60.12 121.014 L 60.12 121.014 L 60.12 121.014 Q 59.524 120.369 58.255 120.369 L 58.255 120.369 L 58.255 120.369 Q 56.565 120.369 55.789 121.287 L 55.789 121.287 L 55.789 121.287 Q 55.013 122.205 55.013 124.295 L 55.013 124.295 L 55.013 129.891 L 53.392 129.891 L 53.392 114.696 L 55.013 114.696 L 55.013 119.295 L 55.013 119.295 Q 55.013 120.125 54.935 120.672 L 54.935 120.672 L 55.032 120.672 L 55.032 120.672 Q 55.511 119.901 56.395 119.456 L 56.395 119.456 L 56.395 119.456 Q 57.278 119.012 58.411 119.012 L 58.411 119.012 L 58.411 119.012 Q 60.374 119.012 61.355 119.945 L 61.355 119.945 L 61.355 119.945 Q 62.337 120.877 62.337 122.908 L 62.337 122.908 L 62.337 129.891 L 62.337 129.891 Z " fill-rule="evenodd" fill="rgb(0,0,0)"/></g></g><path d=" M 56.313 109.93 L 56.313 110.757 L 51.151 110.757 L 51.151 109.989 L 53.219 107.911 L 53.219 107.911 Q 54.164 106.955 54.465 106.546 L 54.465 106.546 L 54.465 106.546 Q 54.766 106.138 54.916 105.751 L 54.916 105.751 L 54.916 105.751 Q 55.066 105.365 55.066 104.919 L 55.066 104.919 L 55.066 104.919 Q 55.066 104.291 54.685 103.923 L 54.685 103.923 L 54.685 103.923 Q 54.304 103.555 53.627 103.555 L 53.627 103.555 L 53.627 103.555 Q 53.138 103.555 52.7 103.716 L 52.7 103.716 L 52.7 103.716 Q 52.263 103.877 51.726 104.301 L 51.726 104.301 L 51.253 103.694 L 51.253 103.694 Q 52.338 102.792 53.616 102.792 L 53.616 102.792 L 53.616 102.792 Q 54.723 102.792 55.351 103.359 L 55.351 103.359 L 55.351 103.359 Q 55.979 103.925 55.979 104.881 L 55.979 104.881 L 55.979 104.881 Q 55.979 105.628 55.561 106.358 L 55.561 106.358 L 55.561 106.358 Q 55.142 107.089 53.992 108.206 L 53.992 108.206 L 52.273 109.887 L 52.273 109.93 L 56.313 109.93 Z  M 62.769 110.757 L 61.877 110.757 L 61.877 106.949 L 61.877 106.949 Q 61.877 106.229 61.549 105.875 L 61.549 105.875 L 61.549 105.875 Q 61.222 105.521 60.523 105.521 L 60.523 105.521 L 60.523 105.521 Q 59.6 105.521 59.17 106.02 L 59.17 106.02 L 59.17 106.02 Q 58.74 106.52 58.74 107.669 L 58.74 107.669 L 58.74 110.757 L 57.849 110.757 L 57.849 104.871 L 58.574 104.871 L 58.719 105.676 L 58.762 105.676 L 58.762 105.676 Q 59.036 105.241 59.53 105.002 L 59.53 105.002 L 59.53 105.002 Q 60.024 104.763 60.631 104.763 L 60.631 104.763 L 60.631 104.763 Q 61.694 104.763 62.231 105.276 L 62.231 105.276 L 62.231 105.276 Q 62.769 105.789 62.769 106.917 L 62.769 106.917 L 62.769 110.757 Z  M 68.725 110.757 L 68.607 109.968 L 68.559 109.968 L 68.559 109.968 Q 67.941 110.865 66.711 110.865 L 66.711 110.865 L 66.711 110.865 Q 65.556 110.865 64.914 110.075 L 64.914 110.075 L 64.914 110.075 Q 64.272 109.286 64.272 107.83 L 64.272 107.83 L 64.272 107.83 Q 64.272 106.375 64.917 105.569 L 64.917 105.569 L 64.917 105.569 Q 65.562 104.763 66.711 104.763 L 66.711 104.763 L 66.711 104.763 Q 67.909 104.763 68.548 105.633 L 68.548 105.633 L 68.618 105.633 L 68.58 105.209 L 68.559 104.795 L 68.559 102.4 L 69.45 102.4 L 69.45 110.757 L 68.725 110.757 Z  M 66.824 110.118 L 66.824 110.118 L 66.824 110.118 Q 67.737 110.118 68.148 109.621 L 68.148 109.621 L 68.148 109.621 Q 68.559 109.125 68.559 108.018 L 68.559 108.018 L 68.559 107.83 L 68.559 107.83 Q 68.559 106.579 68.142 106.044 L 68.142 106.044 L 68.142 106.044 Q 67.726 105.51 66.813 105.51 L 66.813 105.51 L 66.813 105.51 Q 66.029 105.51 65.613 106.119 L 65.613 106.119 L 65.613 106.119 Q 65.196 106.729 65.196 107.841 L 65.196 107.841 L 65.196 107.841 Q 65.196 108.969 65.61 109.543 L 65.61 109.543 L 65.61 109.543 Q 66.023 110.118 66.824 110.118 Z  M 30.961 110.757 L 30.016 110.757 L 29.038 108.26 L 25.891 108.26 L 24.924 110.757 L 24 110.757 L 27.104 102.873 L 27.873 102.873 L 30.961 110.757 Z  M 26.213 107.438 L 28.753 107.438 L 27.84 105.005 L 27.84 105.005 Q 27.663 104.543 27.475 103.872 L 27.475 103.872 L 27.475 103.872 Q 27.357 104.387 27.137 105.005 L 27.137 105.005 L 26.213 107.438 Z  M 34.646 110.865 L 34.646 110.865 L 34.646 110.865 Q 34.071 110.865 33.595 110.653 L 33.595 110.653 L 33.595 110.653 Q 33.12 110.44 32.798 110 L 32.798 110 L 32.733 110 L 32.733 110 Q 32.798 110.516 32.798 110.978 L 32.798 110.978 L 32.798 113.4 L 31.906 113.4 L 31.906 104.871 L 32.631 104.871 L 32.755 105.676 L 32.798 105.676 L 32.798 105.676 Q 33.142 105.193 33.598 104.978 L 33.598 104.978 L 33.598 104.978 Q 34.055 104.763 34.646 104.763 L 34.646 104.763 L 34.646 104.763 Q 35.816 104.763 36.453 105.563 L 36.453 105.563 L 36.453 105.563 Q 37.089 106.364 37.089 107.809 L 37.089 107.809 L 37.089 107.809 Q 37.089 109.259 36.442 110.062 L 36.442 110.062 L 36.442 110.062 Q 35.795 110.865 34.646 110.865 Z  M 34.517 105.521 L 34.517 105.521 L 34.517 105.521 Q 33.614 105.521 33.211 106.02 L 33.211 106.02 L 33.211 106.02 Q 32.809 106.52 32.798 107.61 L 32.798 107.61 L 32.798 107.809 L 32.798 107.809 Q 32.798 109.049 33.211 109.584 L 33.211 109.584 L 33.211 109.584 Q 33.625 110.118 34.538 110.118 L 34.538 110.118 L 34.538 110.118 Q 35.301 110.118 35.733 109.5 L 35.733 109.5 L 35.733 109.5 Q 36.166 108.883 36.166 107.798 L 36.166 107.798 L 36.166 107.798 Q 36.166 106.697 35.733 106.109 L 35.733 106.109 L 35.733 106.109 Q 35.301 105.521 34.517 105.521 Z  M 41.333 104.763 L 41.333 104.763 L 41.333 104.763 Q 41.725 104.763 42.036 104.828 L 42.036 104.828 L 41.913 105.655 L 41.913 105.655 Q 41.547 105.574 41.268 105.574 L 41.268 105.574 L 41.268 105.574 Q 40.554 105.574 40.046 106.154 L 40.046 106.154 L 40.046 106.154 Q 39.539 106.734 39.539 107.599 L 39.539 107.599 L 39.539 110.757 L 38.647 110.757 L 38.647 104.871 L 39.383 104.871 L 39.485 105.961 L 39.528 105.961 L 39.528 105.961 Q 39.855 105.386 40.317 105.075 L 40.317 105.075 L 40.317 105.075 Q 40.779 104.763 41.333 104.763 Z  M 44.029 104.871 L 44.029 110.757 L 43.137 110.757 L 43.137 104.871 L 44.029 104.871 Z  M 43.062 103.275 L 43.062 103.275 L 43.062 103.275 Q 43.062 102.969 43.212 102.827 L 43.212 102.827 L 43.212 102.827 Q 43.363 102.685 43.588 102.685 L 43.588 102.685 L 43.588 102.685 Q 43.803 102.685 43.959 102.83 L 43.959 102.83 L 43.959 102.83 Q 44.115 102.975 44.115 103.275 L 44.115 103.275 L 44.115 103.275 Q 44.115 103.576 43.959 103.724 L 43.959 103.724 L 43.959 103.724 Q 43.803 103.872 43.588 103.872 L 43.588 103.872 L 43.588 103.872 Q 43.363 103.872 43.212 103.724 L 43.212 103.724 L 43.212 103.724 Q 43.062 103.576 43.062 103.275 Z  M 46.811 102.4 L 46.811 110.757 L 45.919 110.757 L 45.919 102.4 L 46.811 102.4 Z " fill="rgb(0,0,0)"/></g></svg>