<?xml version="1.0" standalone="no"?><!-- Generator: Gravit.io --><svg xmlns="http://www.w3.org/2000/svg" xmlns:xlink="http://www.w3.org/1999/xlink" style="isolation:isolate" viewBox="0 0 142 229" width="142" height="229"><defs><clipPath id="_clipPath_Z0eOxYcv0Ohw1G64xwZoGooP4zebRZRk"><rect width="142" height="229"/></clipPath></defs><g clip-path="url(#_clipPath_Z0eOxYcv0Ohw1G64xwZoGooP4zebRZRk)"><path d=" M 14.312 17.637 L 14.312 20.688 L 13.481 20.688 L 13.481 13.55 L 17.461 13.55 L 17.461 14.287 L 14.312 14.287 L 14.312 16.899 L 17.271 16.899 L 17.271 17.637 L 14.312 17.637 L 14.312 17.637 Z  M 20.962 15.239 L 20.962 15.239 L 20.962 15.239 Q 21.318 15.239 21.602 15.298 L 21.602 15.298 L 21.489 16.05 L 21.489 16.05 Q 21.157 15.977 20.903 15.977 L 20.903 15.977 L 20.903 15.977 Q 20.254 15.977 19.792 16.504 L 19.792 16.504 L 19.792 16.504 Q 19.331 17.031 19.331 17.817 L 19.331 17.817 L 19.331 20.688 L 18.521 20.688 L 18.521 15.337 L 19.189 15.337 L 19.282 16.328 L 19.321 16.328 L 19.321 16.328 Q 19.619 15.806 20.039 15.522 L 20.039 15.522 L 20.039 15.522 Q 20.459 15.239 20.962 15.239 Z  M 23.413 15.337 L 23.413 20.688 L 22.603 20.688 L 22.603 15.337 L 23.413 15.337 L 23.413 15.337 Z  M 22.534 13.887 L 22.534 13.887 L 22.534 13.887 Q 22.534 13.608 22.671 13.479 L 22.671 13.479 L 22.671 13.479 Q 22.808 13.35 23.013 13.35 L 23.013 13.35 L 23.013 13.35 Q 23.208 13.35 23.35 13.481 L 23.35 13.481 L 23.35 13.481 Q 23.491 13.613 23.491 13.887 L 23.491 13.887 L 23.491 13.887 Q 23.491 14.16 23.35 14.294 L 23.35 14.294 L 23.35 14.294 Q 23.208 14.429 23.013 14.429 L 23.013 14.429 L 23.013 14.429 Q 22.808 14.429 22.671 14.294 L 22.671 14.294 L 22.671 14.294 Q 22.534 14.16 22.534 13.887 Z  M 28.882 20.688 L 28.774 19.971 L 28.73 19.971 L 28.73 19.971 Q 28.169 20.786 27.051 20.786 L 27.051 20.786 L 27.051 20.786 Q 26.001 20.786 25.417 20.068 L 25.417 20.068 L 25.417 20.068 Q 24.834 19.351 24.834 18.027 L 24.834 18.027 L 24.834 18.027 Q 24.834 16.704 25.42 15.972 L 25.42 15.972 L 25.42 15.972 Q 26.006 15.239 27.051 15.239 L 27.051 15.239 L 27.051 15.239 Q 28.14 15.239 28.721 16.03 L 28.721 16.03 L 28.784 16.03 L 28.75 15.645 L 28.73 15.269 L 28.73 13.091 L 29.541 13.091 L 29.541 20.688 L 28.882 20.688 L 28.882 20.688 Z  M 27.153 20.107 L 27.153 20.107 L 27.153 20.107 Q 27.983 20.107 28.357 19.656 L 28.357 19.656 L 28.357 19.656 Q 28.73 19.204 28.73 18.198 L 28.73 18.198 L 28.73 18.027 L 28.73 18.027 Q 28.73 16.89 28.352 16.404 L 28.352 16.404 L 28.352 16.404 Q 27.974 15.918 27.144 15.918 L 27.144 15.918 L 27.144 15.918 Q 26.431 15.918 26.052 16.472 L 26.052 16.472 L 26.052 16.472 Q 25.674 17.026 25.674 18.037 L 25.674 18.037 L 25.674 18.037 Q 25.674 19.063 26.05 19.585 L 26.05 19.585 L 26.05 19.585 Q 26.426 20.107 27.153 20.107 Z  M 35.151 20.688 L 34.551 20.688 L 34.39 19.927 L 34.351 19.927 L 34.351 19.927 Q 33.95 20.43 33.552 20.608 L 33.552 20.608 L 33.552 20.608 Q 33.154 20.786 32.559 20.786 L 32.559 20.786 L 32.559 20.786 Q 31.763 20.786 31.311 20.376 L 31.311 20.376 L 31.311 20.376 Q 30.859 19.966 30.859 19.209 L 30.859 19.209 L 30.859 19.209 Q 30.859 17.588 33.452 17.51 L 33.452 17.51 L 34.36 17.48 L 34.36 17.148 L 34.36 17.148 Q 34.36 16.519 34.089 16.218 L 34.089 16.218 L 34.089 16.218 Q 33.818 15.918 33.223 15.918 L 33.223 15.918 L 33.223 15.918 Q 32.554 15.918 31.709 16.328 L 31.709 16.328 L 31.46 15.708 L 31.46 15.708 Q 31.855 15.493 32.327 15.371 L 32.327 15.371 L 32.327 15.371 Q 32.798 15.249 33.271 15.249 L 33.271 15.249 L 33.271 15.249 Q 34.229 15.249 34.69 15.674 L 34.69 15.674 L 34.69 15.674 Q 35.151 16.099 35.151 17.036 L 35.151 17.036 L 35.151 20.688 L 35.151 20.688 Z  M 32.72 20.117 L 32.72 20.117 L 32.72 20.117 Q 33.477 20.117 33.909 19.702 L 33.909 19.702 L 33.909 19.702 Q 34.341 19.287 34.341 18.54 L 34.341 18.54 L 34.341 18.057 L 33.53 18.091 L 33.53 18.091 Q 32.563 18.125 32.136 18.391 L 32.136 18.391 L 32.136 18.391 Q 31.709 18.657 31.709 19.219 L 31.709 19.219 L 31.709 19.219 Q 31.709 19.658 31.975 19.888 L 31.975 19.888 L 31.975 19.888 Q 32.241 20.117 32.72 20.117 Z  M 38.13 20.718 L 35.972 15.337 L 36.841 15.337 L 38.013 18.389 L 38.013 18.389 Q 38.398 19.434 38.491 19.897 L 38.491 19.897 L 38.53 19.897 L 38.53 19.897 Q 38.594 19.648 38.796 19.045 L 38.796 19.045 L 38.796 19.045 Q 38.999 18.442 40.122 15.337 L 40.122 15.337 L 40.991 15.337 L 38.691 21.431 L 38.691 21.431 Q 38.35 22.334 37.893 22.712 L 37.893 22.712 L 37.893 22.712 Q 37.437 23.091 36.772 23.091 L 36.772 23.091 L 36.772 23.091 Q 36.401 23.091 36.04 23.008 L 36.04 23.008 L 36.04 22.358 L 36.04 22.358 Q 36.309 22.417 36.641 22.417 L 36.641 22.417 L 36.641 22.417 Q 37.476 22.417 37.832 21.479 L 37.832 21.479 L 38.13 20.718 L 38.13 20.718 Z " fill="rgb(0,0,0)"/><path d=" M 20.506 57.029 L 18.77 57.029 L 17.771 54.254 L 13.95 54.254 L 12.973 57.029 L 11.25 57.029 L 14.989 46.994 L 16.767 46.994 L 20.506 57.029 L 20.506 57.029 Z  M 14.429 52.846 L 17.341 52.846 L 16.404 50.125 L 16.404 50.125 Q 16.302 49.852 16.121 49.264 L 16.121 49.264 L 16.121 49.264 Q 15.939 48.676 15.871 48.402 L 15.871 48.402 L 15.871 48.402 Q 15.687 49.243 15.331 50.241 L 15.331 50.241 L 14.429 52.846 L 14.429 52.846 Z  M 26.733 54.876 L 26.733 54.876 L 26.733 54.876 Q 26.733 55.983 25.927 56.575 L 25.927 56.575 L 25.927 56.575 Q 25.12 57.166 23.616 57.166 L 23.616 57.166 L 23.616 57.166 Q 22.105 57.166 21.189 56.708 L 21.189 56.708 L 21.189 55.32 L 21.189 55.32 Q 22.522 55.936 23.671 55.936 L 23.671 55.936 L 23.671 55.936 Q 25.154 55.936 25.154 55.04 L 25.154 55.04 L 25.154 55.04 Q 25.154 54.753 24.99 54.562 L 24.99 54.562 L 24.99 54.562 Q 24.826 54.37 24.45 54.165 L 24.45 54.165 L 24.45 54.165 Q 24.074 53.96 23.404 53.7 L 23.404 53.7 L 23.404 53.7 Q 22.099 53.194 21.637 52.688 L 21.637 52.688 L 21.637 52.688 Q 21.176 52.183 21.176 51.376 L 21.176 51.376 L 21.176 51.376 Q 21.176 50.405 21.958 49.869 L 21.958 49.869 L 21.958 49.869 Q 22.741 49.332 24.088 49.332 L 24.088 49.332 L 24.088 49.332 Q 25.421 49.332 26.61 49.872 L 26.61 49.872 L 26.091 51.082 L 26.091 51.082 Q 24.867 50.576 24.033 50.576 L 24.033 50.576 L 24.033 50.576 Q 22.762 50.576 22.762 51.301 L 22.762 51.301 L 22.762 51.301 Q 22.762 51.656 23.093 51.902 L 23.093 51.902 L 23.093 51.902 Q 23.425 52.148 24.539 52.579 L 24.539 52.579 L 24.539 52.579 Q 25.476 52.941 25.899 53.242 L 25.899 53.242 L 25.899 53.242 Q 26.323 53.543 26.528 53.936 L 26.528 53.936 L 26.528 53.936 Q 26.733 54.329 26.733 54.876 Z  M 33.549 54.876 L 33.549 54.876 L 33.549 54.876 Q 33.549 55.983 32.742 56.575 L 32.742 56.575 L 32.742 56.575 Q 31.936 57.166 30.432 57.166 L 30.432 57.166 L 30.432 57.166 Q 28.921 57.166 28.005 56.708 L 28.005 56.708 L 28.005 55.32 L 28.005 55.32 Q 29.338 55.936 30.486 55.936 L 30.486 55.936 L 30.486 55.936 Q 31.97 55.936 31.97 55.04 L 31.97 55.04 L 31.97 55.04 Q 31.97 54.753 31.806 54.562 L 31.806 54.562 L 31.806 54.562 Q 31.642 54.37 31.266 54.165 L 31.266 54.165 L 31.266 54.165 Q 30.89 53.96 30.22 53.7 L 30.22 53.7 L 30.22 53.7 Q 28.914 53.194 28.453 52.688 L 28.453 52.688 L 28.453 52.688 Q 27.991 52.183 27.991 51.376 L 27.991 51.376 L 27.991 51.376 Q 27.991 50.405 28.774 49.869 L 28.774 49.869 L 28.774 49.869 Q 29.557 49.332 30.903 49.332 L 30.903 49.332 L 30.903 49.332 Q 32.236 49.332 33.426 49.872 L 33.426 49.872 L 32.906 51.082 L 32.906 51.082 Q 31.683 50.576 30.849 50.576 L 30.849 50.576 L 30.849 50.576 Q 29.577 50.576 29.577 51.301 L 29.577 51.301 L 29.577 51.301 Q 29.577 51.656 29.909 51.902 L 29.909 51.902 L 29.909 51.902 Q 30.24 52.148 31.354 52.579 L 31.354 52.579 L 31.354 52.579 Q 32.291 52.941 32.715 53.242 L 32.715 53.242 L 32.715 53.242 Q 33.139 53.543 33.344 53.936 L 33.344 53.936 L 33.344 53.936 Q 33.549 54.329 33.549 54.876 Z  M 38.587 57.166 L 38.587 57.166 L 38.587 57.166 Q 36.823 57.166 35.829 56.137 L 35.829 56.137 L 35.829 56.137 Q 34.834 55.108 34.834 53.304 L 34.834 53.304 L 34.834 53.304 Q 34.834 51.451 35.757 50.392 L 35.757 50.392 L 35.757 50.392 Q 36.68 49.332 38.293 49.332 L 38.293 49.332 L 38.293 49.332 Q 39.79 49.332 40.658 50.241 L 40.658 50.241 L 40.658 50.241 Q 41.526 51.15 41.526 52.743 L 41.526 52.743 L 41.526 53.611 L 36.488 53.611 L 36.488 53.611 Q 36.522 54.712 37.083 55.303 L 37.083 55.303 L 37.083 55.303 Q 37.644 55.895 38.662 55.895 L 38.662 55.895 L 38.662 55.895 Q 39.332 55.895 39.91 55.768 L 39.91 55.768 L 39.91 55.768 Q 40.487 55.642 41.15 55.348 L 41.15 55.348 L 41.15 56.653 L 41.15 56.653 Q 40.562 56.934 39.961 57.05 L 39.961 57.05 L 39.961 57.05 Q 39.359 57.166 38.587 57.166 Z  M 38.293 50.549 L 38.293 50.549 L 38.293 50.549 Q 37.527 50.549 37.066 51.034 L 37.066 51.034 L 37.066 51.034 Q 36.604 51.52 36.516 52.449 L 36.516 52.449 L 39.947 52.449 L 39.947 52.449 Q 39.934 51.513 39.496 51.031 L 39.496 51.031 L 39.496 51.031 Q 39.059 50.549 38.293 50.549 Z  M 49.723 53.023 L 49.723 57.029 L 48.109 57.029 L 48.109 52.367 L 48.109 52.367 Q 48.109 51.499 47.781 51.072 L 47.781 51.072 L 47.781 51.072 Q 47.453 50.645 46.756 50.645 L 46.756 50.645 L 46.756 50.645 Q 45.826 50.645 45.392 51.25 L 45.392 51.25 L 45.392 51.25 Q 44.958 51.854 44.958 53.263 L 44.958 53.263 L 44.958 57.029 L 43.352 57.029 L 43.352 49.469 L 44.609 49.469 L 44.835 50.46 L 44.917 50.46 L 44.917 50.46 Q 45.231 49.92 45.83 49.626 L 45.83 49.626 L 45.83 49.626 Q 46.428 49.332 47.146 49.332 L 47.146 49.332 L 47.146 49.332 Q 48.889 49.332 49.456 50.521 L 49.456 50.521 L 49.565 50.521 L 49.565 50.521 Q 49.9 49.961 50.509 49.646 L 50.509 49.646 L 50.509 49.646 Q 51.117 49.332 51.903 49.332 L 51.903 49.332 L 51.903 49.332 Q 53.257 49.332 53.875 50.016 L 53.875 50.016 L 53.875 50.016 Q 54.494 50.699 54.494 52.101 L 54.494 52.101 L 54.494 57.029 L 52.888 57.029 L 52.888 52.367 L 52.888 52.367 Q 52.888 51.499 52.556 51.072 L 52.556 51.072 L 52.556 51.072 Q 52.225 50.645 51.527 50.645 L 51.527 50.645 L 51.527 50.645 Q 50.591 50.645 50.157 51.229 L 50.157 51.229 L 50.157 51.229 Q 49.723 51.813 49.723 53.023 L 49.723 53.023 L 49.723 53.023 Z  M 60.599 49.332 L 60.599 49.332 L 60.599 49.332 Q 62.014 49.332 62.803 50.357 L 62.803 50.357 L 62.803 50.357 Q 63.593 51.383 63.593 53.235 L 63.593 53.235 L 63.593 53.235 Q 63.593 55.095 62.793 56.13 L 62.793 56.13 L 62.793 56.13 Q 61.993 57.166 60.571 57.166 L 60.571 57.166 L 60.571 57.166 Q 59.136 57.166 58.343 56.134 L 58.343 56.134 L 58.233 56.134 L 57.939 57.029 L 56.736 57.029 L 56.736 46.393 L 58.343 46.393 L 58.343 48.922 L 58.343 48.922 Q 58.343 49.202 58.315 49.756 L 58.315 49.756 L 58.315 49.756 Q 58.288 50.31 58.274 50.46 L 58.274 50.46 L 58.343 50.46 L 58.343 50.46 Q 59.108 49.332 60.599 49.332 Z  M 60.182 50.645 L 60.182 50.645 L 60.182 50.645 Q 59.211 50.645 58.784 51.215 L 58.784 51.215 L 58.784 51.215 Q 58.356 51.786 58.343 53.126 L 58.343 53.126 L 58.343 53.235 L 58.343 53.235 Q 58.343 54.616 58.78 55.235 L 58.78 55.235 L 58.78 55.235 Q 59.218 55.854 60.209 55.854 L 60.209 55.854 L 60.209 55.854 Q 61.063 55.854 61.504 55.177 L 61.504 55.177 L 61.504 55.177 Q 61.945 54.5 61.945 53.222 L 61.945 53.222 L 61.945 53.222 Q 61.945 50.645 60.182 50.645 Z  M 67.065 46.393 L 67.065 57.029 L 65.459 57.029 L 65.459 46.393 L 67.065 46.393 L 67.065 46.393 Z  M 71.249 57.029 L 68.214 49.469 L 69.964 49.469 L 71.502 53.755 L 71.502 53.755 Q 71.851 54.671 71.967 55.478 L 71.967 55.478 L 72.021 55.478 L 72.021 55.478 Q 72.083 55.102 72.247 54.565 L 72.247 54.565 L 72.247 54.565 Q 72.411 54.028 73.983 49.469 L 73.983 49.469 L 75.72 49.469 L 72.486 58.034 L 72.486 58.034 Q 71.604 60.393 69.547 60.393 L 69.547 60.393 L 69.547 60.393 Q 69.014 60.393 68.508 60.276 L 68.508 60.276 L 68.508 59.005 L 68.508 59.005 Q 68.87 59.087 69.335 59.087 L 69.335 59.087 L 69.335 59.087 Q 70.497 59.087 70.969 57.74 L 70.969 57.74 L 71.249 57.029 L 71.249 57.029 Z  M 18.332 35.25 L 18.332 35.25 L 18.332 35.25 Q 18.332 36.583 17.368 37.342 L 17.368 37.342 L 17.368 37.342 Q 16.404 38.101 14.709 38.101 L 14.709 38.101 L 14.709 38.101 Q 13.014 38.101 11.934 37.574 L 11.934 37.574 L 11.934 36.029 L 11.934 36.029 Q 12.617 36.351 13.386 36.535 L 13.386 36.535 L 13.386 36.535 Q 14.155 36.72 14.818 36.72 L 14.818 36.72 L 14.818 36.72 Q 15.789 36.72 16.25 36.351 L 16.25 36.351 L 16.25 36.351 Q 16.712 35.981 16.712 35.359 L 16.712 35.359 L 16.712 35.359 Q 16.712 34.799 16.288 34.409 L 16.288 34.409 L 16.288 34.409 Q 15.864 34.02 14.538 33.486 L 14.538 33.486 L 14.538 33.486 Q 13.171 32.933 12.61 32.222 L 12.61 32.222 L 12.61 32.222 Q 12.05 31.511 12.05 30.513 L 12.05 30.513 L 12.05 30.513 Q 12.05 29.262 12.938 28.544 L 12.938 28.544 L 12.938 28.544 Q 13.827 27.826 15.324 27.826 L 15.324 27.826 L 15.324 27.826 Q 16.76 27.826 18.182 28.455 L 18.182 28.455 L 17.662 29.788 L 17.662 29.788 Q 16.329 29.228 15.283 29.228 L 15.283 29.228 L 15.283 29.228 Q 14.49 29.228 14.08 29.573 L 14.08 29.573 L 14.08 29.573 Q 13.67 29.918 13.67 30.485 L 13.67 30.485 L 13.67 30.485 Q 13.67 30.875 13.834 31.152 L 13.834 31.152 L 13.834 31.152 Q 13.998 31.429 14.374 31.675 L 14.374 31.675 L 14.374 31.675 Q 14.75 31.921 15.728 32.324 L 15.728 32.324 L 15.728 32.324 Q 16.828 32.782 17.341 33.179 L 17.341 33.179 L 17.341 33.179 Q 17.854 33.575 18.093 34.074 L 18.093 34.074 L 18.093 34.074 Q 18.332 34.573 18.332 35.25 Z  M 23.145 38.101 L 23.145 38.101 L 23.145 38.101 Q 21.429 38.101 20.537 37.099 L 20.537 37.099 L 20.537 37.099 Q 19.645 36.098 19.645 34.225 L 19.645 34.225 L 19.645 34.225 Q 19.645 32.317 20.578 31.292 L 20.578 31.292 L 20.578 31.292 Q 21.511 30.267 23.274 30.267 L 23.274 30.267 L 23.274 30.267 Q 24.471 30.267 25.428 30.711 L 25.428 30.711 L 24.942 32.003 L 24.942 32.003 Q 23.924 31.606 23.261 31.606 L 23.261 31.606 L 23.261 31.606 Q 21.299 31.606 21.299 34.211 L 21.299 34.211 L 21.299 34.211 Q 21.299 35.482 21.788 36.122 L 21.788 36.122 L 21.788 36.122 Q 22.276 36.761 23.22 36.761 L 23.22 36.761 L 23.22 36.761 Q 24.293 36.761 25.25 36.228 L 25.25 36.228 L 25.25 37.629 L 25.25 37.629 Q 24.819 37.882 24.331 37.991 L 24.331 37.991 L 24.331 37.991 Q 23.842 38.101 23.145 38.101 Z  M 33.679 33.035 L 33.679 37.964 L 32.065 37.964 L 32.065 33.315 L 32.065 33.315 Q 32.065 32.44 31.713 32.01 L 31.713 32.01 L 31.713 32.01 Q 31.361 31.579 30.596 31.579 L 30.596 31.579 L 30.596 31.579 Q 29.584 31.579 29.109 32.184 L 29.109 32.184 L 29.109 32.184 Q 28.634 32.789 28.634 34.211 L 28.634 34.211 L 28.634 37.964 L 27.027 37.964 L 27.027 27.327 L 28.634 27.327 L 28.634 30.027 L 28.634 30.027 Q 28.634 30.677 28.552 31.415 L 28.552 31.415 L 28.654 31.415 L 28.654 31.415 Q 28.982 30.868 29.567 30.567 L 29.567 30.567 L 29.567 30.567 Q 30.151 30.267 30.931 30.267 L 30.931 30.267 L 30.931 30.267 Q 33.679 30.267 33.679 33.035 L 33.679 33.035 L 33.679 33.035 Z  M 42.62 34.17 L 42.62 34.17 L 42.62 34.17 Q 42.62 36.022 41.67 37.062 L 41.67 37.062 L 41.67 37.062 Q 40.72 38.101 39.024 38.101 L 39.024 38.101 L 39.024 38.101 Q 37.965 38.101 37.151 37.622 L 37.151 37.622 L 37.151 37.622 Q 36.338 37.144 35.9 36.248 L 35.9 36.248 L 35.9 36.248 Q 35.463 35.353 35.463 34.17 L 35.463 34.17 L 35.463 34.17 Q 35.463 32.331 36.406 31.299 L 36.406 31.299 L 36.406 31.299 Q 37.35 30.267 39.065 30.267 L 39.065 30.267 L 39.065 30.267 Q 40.706 30.267 41.663 31.323 L 41.663 31.323 L 41.663 31.323 Q 42.62 32.379 42.62 34.17 Z  M 37.117 34.17 L 37.117 34.17 L 37.117 34.17 Q 37.117 36.788 39.052 36.788 L 39.052 36.788 L 39.052 36.788 Q 40.966 36.788 40.966 34.17 L 40.966 34.17 L 40.966 34.17 Q 40.966 31.579 39.038 31.579 L 39.038 31.579 L 39.038 31.579 Q 38.026 31.579 37.572 32.249 L 37.572 32.249 L 37.572 32.249 Q 37.117 32.919 37.117 34.17 Z  M 51.172 34.17 L 51.172 34.17 L 51.172 34.17 Q 51.172 36.022 50.222 37.062 L 50.222 37.062 L 50.222 37.062 Q 49.271 38.101 47.576 38.101 L 47.576 38.101 L 47.576 38.101 Q 46.517 38.101 45.703 37.622 L 45.703 37.622 L 45.703 37.622 Q 44.89 37.144 44.452 36.248 L 44.452 36.248 L 44.452 36.248 Q 44.015 35.353 44.015 34.17 L 44.015 34.17 L 44.015 34.17 Q 44.015 32.331 44.958 31.299 L 44.958 31.299 L 44.958 31.299 Q 45.901 30.267 47.617 30.267 L 47.617 30.267 L 47.617 30.267 Q 49.258 30.267 50.215 31.323 L 50.215 31.323 L 50.215 31.323 Q 51.172 32.379 51.172 34.17 Z  M 45.669 34.17 L 45.669 34.17 L 45.669 34.17 Q 45.669 36.788 47.604 36.788 L 47.604 36.788 L 47.604 36.788 Q 49.518 36.788 49.518 34.17 L 49.518 34.17 L 49.518 34.17 Q 49.518 31.579 47.59 31.579 L 47.59 31.579 L 47.59 31.579 Q 46.578 31.579 46.124 32.249 L 46.124 32.249 L 46.124 32.249 Q 45.669 32.919 45.669 34.17 Z  M 54.624 27.327 L 54.624 37.964 L 53.018 37.964 L 53.018 27.327 L 54.624 27.327 L 54.624 27.327 Z " fill="rgb(0,0,0)"/><path d=" M 42.469 123.43 L 42.469 124.186 L 40.834 124.186 L 40.834 129.852 L 39.861 129.852 L 39.861 124.186 L 38.713 124.186 L 38.713 123.746 L 39.861 123.395 L 39.861 123.037 L 39.861 123.037 Q 39.861 120.67 41.93 120.67 L 41.93 120.67 L 41.93 120.67 Q 42.439 120.67 43.125 120.875 L 43.125 120.875 L 42.873 121.654 L 42.873 121.654 Q 42.311 121.473 41.912 121.473 L 41.912 121.473 L 41.912 121.473 Q 41.361 121.473 41.098 121.839 L 41.098 121.839 L 41.098 121.839 Q 40.834 122.205 40.834 123.014 L 40.834 123.014 L 40.834 123.43 L 42.469 123.43 L 42.469 123.43 Z  M 48.311 129.852 L 47.59 129.852 L 47.396 128.938 L 47.35 128.938 L 47.35 128.938 Q 46.869 129.541 46.392 129.755 L 46.392 129.755 L 46.392 129.755 Q 45.914 129.969 45.199 129.969 L 45.199 129.969 L 45.199 129.969 Q 44.244 129.969 43.702 129.477 L 43.702 129.477 L 43.702 129.477 Q 43.16 128.984 43.16 128.076 L 43.16 128.076 L 43.16 128.076 Q 43.16 126.131 46.271 126.037 L 46.271 126.037 L 47.361 126.002 L 47.361 125.604 L 47.361 125.604 Q 47.361 124.848 47.036 124.487 L 47.036 124.487 L 47.036 124.487 Q 46.711 124.127 45.996 124.127 L 45.996 124.127 L 45.996 124.127 Q 45.193 124.127 44.18 124.619 L 44.18 124.619 L 43.881 123.875 L 43.881 123.875 Q 44.355 123.617 44.921 123.471 L 44.921 123.471 L 44.921 123.471 Q 45.486 123.324 46.055 123.324 L 46.055 123.324 L 46.055 123.324 Q 47.203 123.324 47.757 123.834 L 47.757 123.834 L 47.757 123.834 Q 48.311 124.344 48.311 125.469 L 48.311 125.469 L 48.311 129.852 L 48.311 129.852 Z  M 45.393 129.166 L 45.393 129.166 L 45.393 129.166 Q 46.301 129.166 46.819 128.668 L 46.819 128.668 L 46.819 128.668 Q 47.338 128.17 47.338 127.273 L 47.338 127.273 L 47.338 126.693 L 46.365 126.734 L 46.365 126.734 Q 45.205 126.775 44.692 127.095 L 44.692 127.095 L 44.692 127.095 Q 44.18 127.414 44.18 128.088 L 44.18 128.088 L 44.18 128.088 Q 44.18 128.615 44.499 128.891 L 44.499 128.891 L 44.499 128.891 Q 44.818 129.166 45.393 129.166 Z  M 59.473 129.852 L 58.5 129.852 L 58.5 125.674 L 58.5 125.674 Q 58.5 124.906 58.172 124.522 L 58.172 124.522 L 58.172 124.522 Q 57.844 124.139 57.152 124.139 L 57.152 124.139 L 57.152 124.139 Q 56.244 124.139 55.811 124.66 L 55.811 124.66 L 55.811 124.66 Q 55.377 125.182 55.377 126.266 L 55.377 126.266 L 55.377 129.852 L 54.404 129.852 L 54.404 125.674 L 54.404 125.674 Q 54.404 124.906 54.076 124.522 L 54.076 124.522 L 54.076 124.522 Q 53.748 124.139 53.051 124.139 L 53.051 124.139 L 53.051 124.139 Q 52.137 124.139 51.712 124.687 L 51.712 124.687 L 51.712 124.687 Q 51.287 125.234 51.287 126.482 L 51.287 126.482 L 51.287 129.852 L 50.314 129.852 L 50.314 123.43 L 51.105 123.43 L 51.264 124.309 L 51.311 124.309 L 51.311 124.309 Q 51.586 123.84 52.087 123.576 L 52.087 123.576 L 52.087 123.576 Q 52.588 123.313 53.209 123.313 L 53.209 123.313 L 53.209 123.313 Q 54.715 123.313 55.178 124.402 L 55.178 124.402 L 55.225 124.402 L 55.225 124.402 Q 55.512 123.898 56.057 123.605 L 56.057 123.605 L 56.057 123.605 Q 56.602 123.313 57.299 123.313 L 57.299 123.313 L 57.299 123.313 Q 58.389 123.313 58.931 123.872 L 58.931 123.872 L 58.931 123.872 Q 59.473 124.432 59.473 125.662 L 59.473 125.662 L 59.473 129.852 L 59.473 129.852 Z  M 62.449 123.43 L 62.449 129.852 L 61.477 129.852 L 61.477 123.43 L 62.449 123.43 L 62.449 123.43 Z  M 61.395 121.689 L 61.395 121.689 L 61.395 121.689 Q 61.395 121.355 61.559 121.2 L 61.559 121.2 L 61.559 121.2 Q 61.723 121.045 61.969 121.045 L 61.969 121.045 L 61.969 121.045 Q 62.203 121.045 62.373 121.203 L 62.373 121.203 L 62.373 121.203 Q 62.543 121.361 62.543 121.689 L 62.543 121.689 L 62.543 121.689 Q 62.543 122.018 62.373 122.179 L 62.373 122.179 L 62.373 122.179 Q 62.203 122.34 61.969 122.34 L 61.969 122.34 L 61.969 122.34 Q 61.723 122.34 61.559 122.179 L 61.559 122.179 L 61.559 122.179 Q 61.395 122.018 61.395 121.689 Z  M 65.484 120.734 L 65.484 129.852 L 64.512 129.852 L 64.512 120.734 L 65.484 120.734 L 65.484 120.734 Z  M 69.117 129.887 L 66.527 123.43 L 67.57 123.43 L 68.977 127.092 L 68.977 127.092 Q 69.439 128.346 69.551 128.902 L 69.551 128.902 L 69.598 128.902 L 69.598 128.902 Q 69.674 128.604 69.917 127.88 L 69.917 127.88 L 69.917 127.88 Q 70.16 127.156 71.508 123.43 L 71.508 123.43 L 72.551 123.43 L 69.791 130.742 L 69.791 130.742 Q 69.381 131.826 68.833 132.28 L 68.833 132.28 L 68.833 132.28 Q 68.285 132.734 67.488 132.734 L 67.488 132.734 L 67.488 132.734 Q 67.043 132.734 66.609 132.635 L 66.609 132.635 L 66.609 131.855 L 66.609 131.855 Q 66.932 131.926 67.33 131.926 L 67.33 131.926 L 67.33 131.926 Q 68.332 131.926 68.76 130.801 L 68.76 130.801 L 69.117 129.887 L 69.117 129.887 Z  M 73.453 129.23 L 73.453 129.23 L 73.453 129.23 Q 73.453 128.838 73.632 128.636 L 73.632 128.636 L 73.632 128.636 Q 73.811 128.434 74.145 128.434 L 74.145 128.434 L 74.145 128.434 Q 74.484 128.434 74.675 128.636 L 74.675 128.636 L 74.675 128.636 Q 74.865 128.838 74.865 129.23 L 74.865 129.23 L 74.865 129.23 Q 74.865 129.611 74.672 129.816 L 74.672 129.816 L 74.672 129.816 Q 74.479 130.021 74.145 130.021 L 74.145 130.021 L 74.145 130.021 Q 73.846 130.021 73.649 129.837 L 73.649 129.837 L 73.649 129.837 Q 73.453 129.652 73.453 129.23 Z  M 16.195 126.254 L 16.195 125.363 L 19.107 125.363 L 19.107 129.529 L 19.107 129.529 Q 18.428 129.746 17.725 129.857 L 17.725 129.857 L 17.725 129.857 Q 17.021 129.969 16.096 129.969 L 16.096 129.969 L 16.096 129.969 Q 14.15 129.969 13.066 128.812 L 13.066 128.812 L 13.066 128.812 Q 11.982 127.654 11.982 125.568 L 11.982 125.568 L 11.982 125.568 Q 11.982 124.232 12.519 123.228 L 12.519 123.228 L 12.519 123.228 Q 13.055 122.223 14.062 121.692 L 14.062 121.692 L 14.062 121.692 Q 15.07 121.162 16.424 121.162 L 16.424 121.162 L 16.424 121.162 Q 17.795 121.162 18.979 121.666 L 18.979 121.666 L 18.592 122.545 L 18.592 122.545 Q 17.432 122.053 16.359 122.053 L 16.359 122.053 L 16.359 122.053 Q 14.795 122.053 13.916 122.984 L 13.916 122.984 L 13.916 122.984 Q 13.037 123.916 13.037 125.568 L 13.037 125.568 L 13.037 125.568 Q 13.037 127.303 13.884 128.199 L 13.884 128.199 L 13.884 128.199 Q 14.73 129.096 16.371 129.096 L 16.371 129.096 L 16.371 129.096 Q 17.262 129.096 18.111 128.891 L 18.111 128.891 L 18.111 126.254 L 16.195 126.254 L 16.195 126.254 Z  M 27.668 121.285 L 27.668 129.852 L 26.672 129.852 L 26.672 125.82 L 22.16 125.82 L 22.16 129.852 L 21.164 129.852 L 21.164 121.285 L 22.16 121.285 L 22.16 124.93 L 26.672 124.93 L 26.672 121.285 L 27.668 121.285 L 27.668 121.285 Z  M 34.852 127.572 L 34.852 127.572 L 34.852 127.572 Q 34.852 128.703 34.031 129.336 L 34.031 129.336 L 34.031 129.336 Q 33.211 129.969 31.805 129.969 L 31.805 129.969 L 31.805 129.969 Q 30.281 129.969 29.461 129.576 L 29.461 129.576 L 29.461 128.615 L 29.461 128.615 Q 29.988 128.838 30.609 128.967 L 30.609 128.967 L 30.609 128.967 Q 31.23 129.096 31.84 129.096 L 31.84 129.096 L 31.84 129.096 Q 32.836 129.096 33.34 128.718 L 33.34 128.718 L 33.34 128.718 Q 33.844 128.34 33.844 127.666 L 33.844 127.666 L 33.844 127.666 Q 33.844 127.221 33.665 126.937 L 33.665 126.937 L 33.665 126.937 Q 33.486 126.652 33.067 126.412 L 33.067 126.412 L 33.067 126.412 Q 32.648 126.172 31.793 125.867 L 31.793 125.867 L 31.793 125.867 Q 30.598 125.439 30.085 124.854 L 30.085 124.854 L 30.085 124.854 Q 29.572 124.268 29.572 123.324 L 29.572 123.324 L 29.572 123.324 Q 29.572 122.334 30.316 121.748 L 30.316 121.748 L 30.316 121.748 Q 31.061 121.162 32.285 121.162 L 32.285 121.162 L 32.285 121.162 Q 33.562 121.162 34.635 121.631 L 34.635 121.631 L 34.324 122.498 L 34.324 122.498 Q 33.264 122.053 32.262 122.053 L 32.262 122.053 L 32.262 122.053 Q 31.471 122.053 31.025 122.393 L 31.025 122.393 L 31.025 122.393 Q 30.58 122.732 30.58 123.336 L 30.58 123.336 L 30.58 123.336 Q 30.58 123.781 30.744 124.065 L 30.744 124.065 L 30.744 124.065 Q 30.908 124.35 31.298 124.587 L 31.298 124.587 L 31.298 124.587 Q 31.687 124.824 32.49 125.111 L 32.49 125.111 L 32.49 125.111 Q 33.838 125.592 34.345 126.143 L 34.345 126.143 L 34.345 126.143 Q 34.852 126.693 34.852 127.572 Z  M 86.941 113.627 L 86.941 113.627 L 86.941 113.627 Q 85.518 113.627 84.694 112.76 L 84.694 112.76 L 84.694 112.76 Q 83.871 111.893 83.871 110.352 L 83.871 110.352 L 83.871 110.352 Q 83.871 108.799 84.636 107.885 L 84.636 107.885 L 84.636 107.885 Q 85.4 106.971 86.689 106.971 L 86.689 106.971 L 86.689 106.971 Q 87.896 106.971 88.6 107.765 L 88.6 107.765 L 88.6 107.765 Q 89.303 108.559 89.303 109.859 L 89.303 109.859 L 89.303 110.475 L 84.879 110.475 L 84.879 110.475 Q 84.908 111.605 85.45 112.191 L 85.45 112.191 L 85.45 112.191 Q 85.992 112.777 86.977 112.777 L 86.977 112.777 L 86.977 112.777 Q 88.014 112.777 89.027 112.344 L 89.027 112.344 L 89.027 113.211 L 89.027 113.211 Q 88.512 113.434 88.052 113.53 L 88.052 113.53 L 88.052 113.53 Q 87.592 113.627 86.941 113.627 Z  M 86.678 107.785 L 86.678 107.785 L 86.678 107.785 Q 85.904 107.785 85.444 108.289 L 85.444 108.289 L 85.444 108.289 Q 84.984 108.793 84.902 109.684 L 84.902 109.684 L 88.26 109.684 L 88.26 109.684 Q 88.26 108.764 87.85 108.274 L 87.85 108.274 L 87.85 108.274 Q 87.439 107.785 86.678 107.785 Z  M 96.328 113.51 L 95.355 113.51 L 95.355 109.355 L 95.355 109.355 Q 95.355 108.57 94.998 108.184 L 94.998 108.184 L 94.998 108.184 Q 94.641 107.797 93.879 107.797 L 93.879 107.797 L 93.879 107.797 Q 92.871 107.797 92.402 108.342 L 92.402 108.342 L 92.402 108.342 Q 91.934 108.887 91.934 110.141 L 91.934 110.141 L 91.934 113.51 L 90.961 113.51 L 90.961 107.088 L 91.752 107.088 L 91.91 107.967 L 91.957 107.967 L 91.957 107.967 Q 92.256 107.492 92.795 107.231 L 92.795 107.231 L 92.795 107.231 Q 93.334 106.971 93.996 106.971 L 93.996 106.971 L 93.996 106.971 Q 95.156 106.971 95.742 107.53 L 95.742 107.53 L 95.742 107.53 Q 96.328 108.09 96.328 109.32 L 96.328 109.32 L 96.328 113.51 L 96.328 113.51 Z  M 100.4 112.824 L 100.4 112.824 L 100.4 112.824 Q 100.658 112.824 100.898 112.786 L 100.898 112.786 L 100.898 112.786 Q 101.139 112.748 101.279 112.707 L 101.279 112.707 L 101.279 113.451 L 101.279 113.451 Q 101.121 113.527 100.813 113.577 L 100.813 113.577 L 100.813 113.577 Q 100.506 113.627 100.26 113.627 L 100.26 113.627 L 100.26 113.627 Q 98.396 113.627 98.396 111.664 L 98.396 111.664 L 98.396 107.844 L 97.477 107.844 L 97.477 107.375 L 98.396 106.971 L 98.807 105.6 L 99.369 105.6 L 99.369 107.088 L 101.232 107.088 L 101.232 107.844 L 99.369 107.844 L 99.369 111.623 L 99.369 111.623 Q 99.369 112.203 99.645 112.514 L 99.645 112.514 L 99.645 112.514 Q 99.92 112.824 100.4 112.824 Z  M 103.535 107.088 L 103.535 113.51 L 102.562 113.51 L 102.562 107.088 L 103.535 107.088 L 103.535 107.088 Z  M 102.48 105.348 L 102.48 105.348 L 102.48 105.348 Q 102.48 105.014 102.645 104.858 L 102.645 104.858 L 102.645 104.858 Q 102.809 104.703 103.055 104.703 L 103.055 104.703 L 103.055 104.703 Q 103.289 104.703 103.459 104.861 L 103.459 104.861 L 103.459 104.861 Q 103.629 105.02 103.629 105.348 L 103.629 105.348 L 103.629 105.348 Q 103.629 105.676 103.459 105.837 L 103.459 105.837 L 103.459 105.837 Q 103.289 105.998 103.055 105.998 L 103.055 105.998 L 103.055 105.998 Q 102.809 105.998 102.645 105.837 L 102.645 105.837 L 102.645 105.837 Q 102.48 105.676 102.48 105.348 Z  M 108.527 106.971 L 108.527 106.971 L 108.527 106.971 Q 108.955 106.971 109.295 107.041 L 109.295 107.041 L 109.16 107.943 L 109.16 107.943 Q 108.762 107.855 108.457 107.855 L 108.457 107.855 L 108.457 107.855 Q 107.678 107.855 107.124 108.488 L 107.124 108.488 L 107.124 108.488 Q 106.57 109.121 106.57 110.064 L 106.57 110.064 L 106.57 113.51 L 105.598 113.51 L 105.598 107.088 L 106.4 107.088 L 106.512 108.277 L 106.559 108.277 L 106.559 108.277 Q 106.916 107.65 107.42 107.311 L 107.42 107.311 L 107.42 107.311 Q 107.924 106.971 108.527 106.971 Z  M 113.209 113.627 L 113.209 113.627 L 113.209 113.627 Q 111.785 113.627 110.962 112.76 L 110.962 112.76 L 110.962 112.76 Q 110.139 111.893 110.139 110.352 L 110.139 110.352 L 110.139 110.352 Q 110.139 108.799 110.903 107.885 L 110.903 107.885 L 110.903 107.885 Q 111.668 106.971 112.957 106.971 L 112.957 106.971 L 112.957 106.971 Q 114.164 106.971 114.867 107.765 L 114.867 107.765 L 114.867 107.765 Q 115.57 108.559 115.57 109.859 L 115.57 109.859 L 115.57 110.475 L 111.146 110.475 L 111.146 110.475 Q 111.176 111.605 111.718 112.191 L 111.718 112.191 L 111.718 112.191 Q 112.26 112.777 113.244 112.777 L 113.244 112.777 L 113.244 112.777 Q 114.281 112.777 115.295 112.344 L 115.295 112.344 L 115.295 113.211 L 115.295 113.211 Q 114.779 113.434 114.319 113.53 L 114.319 113.53 L 114.319 113.53 Q 113.859 113.627 113.209 113.627 Z  M 112.945 107.785 L 112.945 107.785 L 112.945 107.785 Q 112.172 107.785 111.712 108.289 L 111.712 108.289 L 111.712 108.289 Q 111.252 108.793 111.17 109.684 L 111.17 109.684 L 114.527 109.684 L 114.527 109.684 Q 114.527 108.764 114.117 108.274 L 114.117 108.274 L 114.117 108.274 Q 113.707 107.785 112.945 107.785 Z  M 64.852 112.824 L 64.852 112.824 L 64.852 112.824 Q 65.109 112.824 65.35 112.786 L 65.35 112.786 L 65.35 112.786 Q 65.59 112.748 65.73 112.707 L 65.73 112.707 L 65.73 113.451 L 65.73 113.451 Q 65.572 113.527 65.265 113.577 L 65.265 113.577 L 65.265 113.577 Q 64.957 113.627 64.711 113.627 L 64.711 113.627 L 64.711 113.627 Q 62.848 113.627 62.848 111.664 L 62.848 111.664 L 62.848 107.844 L 61.928 107.844 L 61.928 107.375 L 62.848 106.971 L 63.258 105.6 L 63.82 105.6 L 63.82 107.088 L 65.684 107.088 L 65.684 107.844 L 63.82 107.844 L 63.82 111.623 L 63.82 111.623 Q 63.82 112.203 64.096 112.514 L 64.096 112.514 L 64.096 112.514 Q 64.371 112.824 64.852 112.824 Z  M 72.381 113.51 L 71.408 113.51 L 71.408 109.355 L 71.408 109.355 Q 71.408 108.57 71.051 108.184 L 71.051 108.184 L 71.051 108.184 Q 70.693 107.797 69.932 107.797 L 69.932 107.797 L 69.932 107.797 Q 68.918 107.797 68.452 108.348 L 68.452 108.348 L 68.452 108.348 Q 67.986 108.898 67.986 110.152 L 67.986 110.152 L 67.986 113.51 L 67.014 113.51 L 67.014 104.393 L 67.986 104.393 L 67.986 107.152 L 67.986 107.152 Q 67.986 107.65 67.939 107.979 L 67.939 107.979 L 67.998 107.979 L 67.998 107.979 Q 68.285 107.516 68.815 107.249 L 68.815 107.249 L 68.815 107.249 Q 69.346 106.982 70.025 106.982 L 70.025 106.982 L 70.025 106.982 Q 71.203 106.982 71.792 107.542 L 71.792 107.542 L 71.792 107.542 Q 72.381 108.102 72.381 109.32 L 72.381 109.32 L 72.381 113.51 L 72.381 113.51 Z  M 77.092 113.627 L 77.092 113.627 L 77.092 113.627 Q 75.668 113.627 74.845 112.76 L 74.845 112.76 L 74.845 112.76 Q 74.021 111.893 74.021 110.352 L 74.021 110.352 L 74.021 110.352 Q 74.021 108.799 74.786 107.885 L 74.786 107.885 L 74.786 107.885 Q 75.551 106.971 76.84 106.971 L 76.84 106.971 L 76.84 106.971 Q 78.047 106.971 78.75 107.765 L 78.75 107.765 L 78.75 107.765 Q 79.453 108.559 79.453 109.859 L 79.453 109.859 L 79.453 110.475 L 75.029 110.475 L 75.029 110.475 Q 75.059 111.605 75.601 112.191 L 75.601 112.191 L 75.601 112.191 Q 76.143 112.777 77.127 112.777 L 77.127 112.777 L 77.127 112.777 Q 78.164 112.777 79.178 112.344 L 79.178 112.344 L 79.178 113.211 L 79.178 113.211 Q 78.662 113.434 78.202 113.53 L 78.202 113.53 L 78.202 113.53 Q 77.742 113.627 77.092 113.627 Z  M 76.828 107.785 L 76.828 107.785 L 76.828 107.785 Q 76.055 107.785 75.595 108.289 L 75.595 108.289 L 75.595 108.289 Q 75.135 108.793 75.053 109.684 L 75.053 109.684 L 78.41 109.684 L 78.41 109.684 Q 78.41 108.764 78 108.274 L 78 108.274 L 78 108.274 Q 77.59 107.785 76.828 107.785 Z  M 46.342 107.088 L 46.342 107.844 L 44.707 107.844 L 44.707 113.51 L 43.734 113.51 L 43.734 107.844 L 42.586 107.844 L 42.586 107.404 L 43.734 107.053 L 43.734 106.695 L 43.734 106.695 Q 43.734 104.328 45.803 104.328 L 45.803 104.328 L 45.803 104.328 Q 46.312 104.328 46.998 104.533 L 46.998 104.533 L 46.746 105.313 L 46.746 105.313 Q 46.184 105.131 45.785 105.131 L 45.785 105.131 L 45.785 105.131 Q 45.234 105.131 44.971 105.497 L 44.971 105.497 L 44.971 105.497 Q 44.707 105.863 44.707 106.672 L 44.707 106.672 L 44.707 107.088 L 46.342 107.088 L 46.342 107.088 Z  M 53.057 110.293 L 53.057 110.293 L 53.057 110.293 Q 53.057 111.863 52.266 112.745 L 52.266 112.745 L 52.266 112.745 Q 51.475 113.627 50.08 113.627 L 50.08 113.627 L 50.08 113.627 Q 49.219 113.627 48.551 113.223 L 48.551 113.223 L 48.551 113.223 Q 47.883 112.818 47.52 112.063 L 47.52 112.063 L 47.52 112.063 Q 47.156 111.307 47.156 110.293 L 47.156 110.293 L 47.156 110.293 Q 47.156 108.723 47.941 107.847 L 47.941 107.847 L 47.941 107.847 Q 48.727 106.971 50.121 106.971 L 50.121 106.971 L 50.121 106.971 Q 51.469 106.971 52.263 107.867 L 52.263 107.867 L 52.263 107.867 Q 53.057 108.764 53.057 110.293 Z  M 48.164 110.293 L 48.164 110.293 L 48.164 110.293 Q 48.164 111.523 48.656 112.168 L 48.656 112.168 L 48.656 112.168 Q 49.148 112.813 50.104 112.813 L 50.104 112.813 L 50.104 112.813 Q 51.059 112.813 51.554 112.171 L 51.554 112.171 L 51.554 112.171 Q 52.049 111.529 52.049 110.293 L 52.049 110.293 L 52.049 110.293 Q 52.049 109.068 51.554 108.433 L 51.554 108.433 L 51.554 108.433 Q 51.059 107.797 50.092 107.797 L 50.092 107.797 L 50.092 107.797 Q 49.137 107.797 48.65 108.424 L 48.65 108.424 L 48.65 108.424 Q 48.164 109.051 48.164 110.293 Z  M 57.691 106.971 L 57.691 106.971 L 57.691 106.971 Q 58.119 106.971 58.459 107.041 L 58.459 107.041 L 58.324 107.943 L 58.324 107.943 Q 57.926 107.855 57.621 107.855 L 57.621 107.855 L 57.621 107.855 Q 56.842 107.855 56.288 108.488 L 56.288 108.488 L 56.288 108.488 Q 55.734 109.121 55.734 110.064 L 55.734 110.064 L 55.734 113.51 L 54.762 113.51 L 54.762 107.088 L 55.564 107.088 L 55.676 108.277 L 55.723 108.277 L 55.723 108.277 Q 56.08 107.65 56.584 107.311 L 56.584 107.311 L 56.584 107.311 Q 57.088 106.971 57.691 106.971 Z  M 12.211 107.088 L 13.195 107.088 L 13.195 111.254 L 13.195 111.254 Q 13.195 112.039 13.553 112.426 L 13.553 112.426 L 13.553 112.426 Q 13.91 112.813 14.672 112.813 L 14.672 112.813 L 14.672 112.813 Q 15.68 112.813 16.146 112.262 L 16.146 112.262 L 16.146 112.262 Q 16.611 111.711 16.611 110.463 L 16.611 110.463 L 16.611 107.088 L 17.584 107.088 L 17.584 113.51 L 16.781 113.51 L 16.641 112.648 L 16.588 112.648 L 16.588 112.648 Q 16.289 113.123 15.759 113.375 L 15.759 113.375 L 15.759 113.375 Q 15.229 113.627 14.549 113.627 L 14.549 113.627 L 14.549 113.627 Q 13.377 113.627 12.794 113.07 L 12.794 113.07 L 12.794 113.07 Q 12.211 112.514 12.211 111.289 L 12.211 111.289 L 12.211 107.088 L 12.211 107.088 Z  M 25.014 113.51 L 24.041 113.51 L 24.041 109.355 L 24.041 109.355 Q 24.041 108.57 23.684 108.184 L 23.684 108.184 L 23.684 108.184 Q 23.326 107.797 22.564 107.797 L 22.564 107.797 L 22.564 107.797 Q 21.557 107.797 21.088 108.342 L 21.088 108.342 L 21.088 108.342 Q 20.619 108.887 20.619 110.141 L 20.619 110.141 L 20.619 113.51 L 19.646 113.51 L 19.646 107.088 L 20.437 107.088 L 20.596 107.967 L 20.643 107.967 L 20.643 107.967 Q 20.941 107.492 21.48 107.231 L 21.48 107.231 L 21.48 107.231 Q 22.02 106.971 22.682 106.971 L 22.682 106.971 L 22.682 106.971 Q 23.842 106.971 24.428 107.53 L 24.428 107.53 L 24.428 107.53 Q 25.014 108.09 25.014 109.32 L 25.014 109.32 L 25.014 113.51 L 25.014 113.51 Z  M 27.984 107.088 L 27.984 113.51 L 27.012 113.51 L 27.012 107.088 L 27.984 107.088 L 27.984 107.088 Z  M 26.93 105.348 L 26.93 105.348 L 26.93 105.348 Q 26.93 105.014 27.094 104.858 L 27.094 104.858 L 27.094 104.858 Q 27.258 104.703 27.504 104.703 L 27.504 104.703 L 27.504 104.703 Q 27.738 104.703 27.908 104.861 L 27.908 104.861 L 27.908 104.861 Q 28.078 105.02 28.078 105.348 L 28.078 105.348 L 28.078 105.348 Q 28.078 105.676 27.908 105.837 L 27.908 105.837 L 27.908 105.837 Q 27.738 105.998 27.504 105.998 L 27.504 105.998 L 27.504 105.998 Q 27.258 105.998 27.094 105.837 L 27.094 105.837 L 27.094 105.837 Q 26.93 105.676 26.93 105.348 Z  M 32.121 112.824 L 32.121 112.824 L 32.121 112.824 Q 32.379 112.824 32.619 112.786 L 32.619 112.786 L 32.619 112.786 Q 32.859 112.748 33 112.707 L 33 112.707 L 33 113.451 L 33 113.451 Q 32.842 113.527 32.534 113.577 L 32.534 113.577 L 32.534 113.577 Q 32.227 113.627 31.98 113.627 L 31.98 113.627 L 31.98 113.627 Q 30.117 113.627 30.117 111.664 L 30.117 111.664 L 30.117 107.844 L 29.197 107.844 L 29.197 107.375 L 30.117 106.971 L 30.527 105.6 L 31.09 105.6 L 31.09 107.088 L 32.953 107.088 L 32.953 107.844 L 31.09 107.844 L 31.09 111.623 L 31.09 111.623 Q 31.09 112.203 31.365 112.514 L 31.365 112.514 L 31.365 112.514 Q 31.641 112.824 32.121 112.824 Z  M 35.854 113.545 L 33.264 107.088 L 34.307 107.088 L 35.713 110.75 L 35.713 110.75 Q 36.176 112.004 36.287 112.561 L 36.287 112.561 L 36.334 112.561 L 36.334 112.561 Q 36.41 112.262 36.653 111.538 L 36.653 111.538 L 36.653 111.538 Q 36.896 110.814 38.244 107.088 L 38.244 107.088 L 39.287 107.088 L 36.527 114.4 L 36.527 114.4 Q 36.117 115.484 35.569 115.938 L 35.569 115.938 L 35.569 115.938 Q 35.021 116.393 34.225 116.393 L 34.225 116.393 L 34.225 116.393 Q 33.779 116.393 33.346 116.293 L 33.346 116.293 L 33.346 115.514 L 33.346 115.514 Q 33.668 115.584 34.066 115.584 L 34.066 115.584 L 34.066 115.584 Q 35.068 115.584 35.496 114.459 L 35.496 114.459 L 35.854 113.545 L 35.854 113.545 Z  M 112.4 93.951 L 112.4 93.951 L 112.4 93.951 Q 112.4 95.521 111.609 96.403 L 111.609 96.403 L 111.609 96.403 Q 110.818 97.285 109.424 97.285 L 109.424 97.285 L 109.424 97.285 Q 108.562 97.285 107.895 96.881 L 107.895 96.881 L 107.895 96.881 Q 107.227 96.477 106.863 95.721 L 106.863 95.721 L 106.863 95.721 Q 106.5 94.965 106.5 93.951 L 106.5 93.951 L 106.5 93.951 Q 106.5 92.381 107.285 91.505 L 107.285 91.505 L 107.285 91.505 Q 108.07 90.629 109.465 90.629 L 109.465 90.629 L 109.465 90.629 Q 110.812 90.629 111.606 91.525 L 111.606 91.525 L 111.606 91.525 Q 112.4 92.422 112.4 93.951 Z  M 107.508 93.951 L 107.508 93.951 L 107.508 93.951 Q 107.508 95.182 108 95.826 L 108 95.826 L 108 95.826 Q 108.492 96.471 109.447 96.471 L 109.447 96.471 L 109.447 96.471 Q 110.402 96.471 110.897 95.829 L 110.897 95.829 L 110.897 95.829 Q 111.393 95.188 111.393 93.951 L 111.393 93.951 L 111.393 93.951 Q 111.393 92.727 110.897 92.091 L 110.897 92.091 L 110.897 92.091 Q 110.402 91.455 109.436 91.455 L 109.436 91.455 L 109.436 91.455 Q 108.48 91.455 107.994 92.082 L 107.994 92.082 L 107.994 92.082 Q 107.508 92.709 107.508 93.951 Z  M 117 90.746 L 117 91.502 L 115.365 91.502 L 115.365 97.168 L 114.393 97.168 L 114.393 91.502 L 113.244 91.502 L 113.244 91.063 L 114.393 90.711 L 114.393 90.354 L 114.393 90.354 Q 114.393 87.986 116.461 87.986 L 116.461 87.986 L 116.461 87.986 Q 116.971 87.986 117.656 88.191 L 117.656 88.191 L 117.404 88.971 L 117.404 88.971 Q 116.842 88.789 116.443 88.789 L 116.443 88.789 L 116.443 88.789 Q 115.893 88.789 115.629 89.155 L 115.629 89.155 L 115.629 89.155 Q 115.365 89.521 115.365 90.33 L 115.365 90.33 L 115.365 90.746 L 117 90.746 L 117 90.746 Z  M 63.574 97.168 L 62.602 97.168 L 62.602 92.99 L 62.602 92.99 Q 62.602 92.223 62.273 91.839 L 62.273 91.839 L 62.273 91.839 Q 61.945 91.455 61.254 91.455 L 61.254 91.455 L 61.254 91.455 Q 60.346 91.455 59.912 91.977 L 59.912 91.977 L 59.912 91.977 Q 59.479 92.498 59.479 93.582 L 59.479 93.582 L 59.479 97.168 L 58.506 97.168 L 58.506 92.99 L 58.506 92.99 Q 58.506 92.223 58.178 91.839 L 58.178 91.839 L 58.178 91.839 Q 57.85 91.455 57.152 91.455 L 57.152 91.455 L 57.152 91.455 Q 56.238 91.455 55.813 92.003 L 55.813 92.003 L 55.813 92.003 Q 55.389 92.551 55.389 93.799 L 55.389 93.799 L 55.389 97.168 L 54.416 97.168 L 54.416 90.746 L 55.207 90.746 L 55.365 91.625 L 55.412 91.625 L 55.412 91.625 Q 55.687 91.156 56.188 90.893 L 56.188 90.893 L 56.188 90.893 Q 56.689 90.629 57.311 90.629 L 57.311 90.629 L 57.311 90.629 Q 58.816 90.629 59.279 91.719 L 59.279 91.719 L 59.326 91.719 L 59.326 91.719 Q 59.613 91.215 60.158 90.922 L 60.158 90.922 L 60.158 90.922 Q 60.703 90.629 61.4 90.629 L 61.4 90.629 L 61.4 90.629 Q 62.49 90.629 63.032 91.188 L 63.032 91.188 L 63.032 91.188 Q 63.574 91.748 63.574 92.979 L 63.574 92.979 L 63.574 97.168 L 63.574 97.168 Z  M 68.291 97.285 L 68.291 97.285 L 68.291 97.285 Q 66.867 97.285 66.044 96.418 L 66.044 96.418 L 66.044 96.418 Q 65.221 95.551 65.221 94.01 L 65.221 94.01 L 65.221 94.01 Q 65.221 92.457 65.985 91.543 L 65.985 91.543 L 65.985 91.543 Q 66.75 90.629 68.039 90.629 L 68.039 90.629 L 68.039 90.629 Q 69.246 90.629 69.949 91.423 L 69.949 91.423 L 69.949 91.423 Q 70.652 92.217 70.652 93.518 L 70.652 93.518 L 70.652 94.133 L 66.229 94.133 L 66.229 94.133 Q 66.258 95.264 66.8 95.85 L 66.8 95.85 L 66.8 95.85 Q 67.342 96.436 68.326 96.436 L 68.326 96.436 L 68.326 96.436 Q 69.363 96.436 70.377 96.002 L 70.377 96.002 L 70.377 96.869 L 70.377 96.869 Q 69.861 97.092 69.401 97.188 L 69.401 97.188 L 69.401 97.188 Q 68.941 97.285 68.291 97.285 Z  M 68.027 91.443 L 68.027 91.443 L 68.027 91.443 Q 67.254 91.443 66.794 91.947 L 66.794 91.947 L 66.794 91.947 Q 66.334 92.451 66.252 93.342 L 66.252 93.342 L 69.609 93.342 L 69.609 93.342 Q 69.609 92.422 69.199 91.933 L 69.199 91.933 L 69.199 91.933 Q 68.789 91.443 68.027 91.443 Z  M 76.453 95.416 L 76.453 95.416 L 76.453 95.416 Q 76.453 96.313 75.785 96.799 L 75.785 96.799 L 75.785 96.799 Q 75.117 97.285 73.91 97.285 L 73.91 97.285 L 73.91 97.285 Q 72.633 97.285 71.918 96.881 L 71.918 96.881 L 71.918 95.979 L 71.918 95.979 Q 72.381 96.213 72.911 96.348 L 72.911 96.348 L 72.911 96.348 Q 73.441 96.482 73.934 96.482 L 73.934 96.482 L 73.934 96.482 Q 74.695 96.482 75.105 96.239 L 75.105 96.239 L 75.105 96.239 Q 75.516 95.996 75.516 95.498 L 75.516 95.498 L 75.516 95.498 Q 75.516 95.123 75.19 94.856 L 75.19 94.856 L 75.19 94.856 Q 74.865 94.59 73.922 94.227 L 73.922 94.227 L 73.922 94.227 Q 73.025 93.893 72.647 93.644 L 72.647 93.644 L 72.647 93.644 Q 72.27 93.395 72.085 93.078 L 72.085 93.078 L 72.085 93.078 Q 71.9 92.762 71.9 92.322 L 71.9 92.322 L 71.9 92.322 Q 71.9 91.537 72.539 91.083 L 72.539 91.083 L 72.539 91.083 Q 73.178 90.629 74.291 90.629 L 74.291 90.629 L 74.291 90.629 Q 75.328 90.629 76.318 91.051 L 76.318 91.051 L 75.973 91.842 L 75.973 91.842 Q 75.006 91.443 74.221 91.443 L 74.221 91.443 L 74.221 91.443 Q 73.529 91.443 73.178 91.66 L 73.178 91.66 L 73.178 91.66 Q 72.826 91.877 72.826 92.258 L 72.826 92.258 L 72.826 92.258 Q 72.826 92.516 72.958 92.697 L 72.958 92.697 L 72.958 92.697 Q 73.09 92.879 73.383 93.043 L 73.383 93.043 L 73.383 93.043 Q 73.676 93.207 74.508 93.518 L 74.508 93.518 L 74.508 93.518 Q 75.65 93.934 76.052 94.355 L 76.052 94.355 L 76.052 94.355 Q 76.453 94.777 76.453 95.416 Z  M 82.178 95.416 L 82.178 95.416 L 82.178 95.416 Q 82.178 96.313 81.51 96.799 L 81.51 96.799 L 81.51 96.799 Q 80.842 97.285 79.635 97.285 L 79.635 97.285 L 79.635 97.285 Q 78.357 97.285 77.643 96.881 L 77.643 96.881 L 77.643 95.979 L 77.643 95.979 Q 78.105 96.213 78.636 96.348 L 78.636 96.348 L 78.636 96.348 Q 79.166 96.482 79.658 96.482 L 79.658 96.482 L 79.658 96.482 Q 80.42 96.482 80.83 96.239 L 80.83 96.239 L 80.83 96.239 Q 81.24 95.996 81.24 95.498 L 81.24 95.498 L 81.24 95.498 Q 81.24 95.123 80.915 94.856 L 80.915 94.856 L 80.915 94.856 Q 80.59 94.59 79.646 94.227 L 79.646 94.227 L 79.646 94.227 Q 78.75 93.893 78.372 93.644 L 78.372 93.644 L 78.372 93.644 Q 77.994 93.395 77.81 93.078 L 77.81 93.078 L 77.81 93.078 Q 77.625 92.762 77.625 92.322 L 77.625 92.322 L 77.625 92.322 Q 77.625 91.537 78.264 91.083 L 78.264 91.083 L 78.264 91.083 Q 78.902 90.629 80.016 90.629 L 80.016 90.629 L 80.016 90.629 Q 81.053 90.629 82.043 91.051 L 82.043 91.051 L 81.697 91.842 L 81.697 91.842 Q 80.73 91.443 79.945 91.443 L 79.945 91.443 L 79.945 91.443 Q 79.254 91.443 78.902 91.66 L 78.902 91.66 L 78.902 91.66 Q 78.551 91.877 78.551 92.258 L 78.551 92.258 L 78.551 92.258 Q 78.551 92.516 78.683 92.697 L 78.683 92.697 L 78.683 92.697 Q 78.814 92.879 79.107 93.043 L 79.107 93.043 L 79.107 93.043 Q 79.4 93.207 80.232 93.518 L 80.232 93.518 L 80.232 93.518 Q 81.375 93.934 81.776 94.355 L 81.776 94.355 L 81.776 94.355 Q 82.178 94.777 82.178 95.416 Z  M 88.43 97.168 L 87.709 97.168 L 87.516 96.254 L 87.469 96.254 L 87.469 96.254 Q 86.988 96.857 86.511 97.071 L 86.511 97.071 L 86.511 97.071 Q 86.033 97.285 85.318 97.285 L 85.318 97.285 L 85.318 97.285 Q 84.363 97.285 83.821 96.793 L 83.821 96.793 L 83.821 96.793 Q 83.279 96.301 83.279 95.393 L 83.279 95.393 L 83.279 95.393 Q 83.279 93.447 86.391 93.354 L 86.391 93.354 L 87.48 93.318 L 87.48 92.92 L 87.48 92.92 Q 87.48 92.164 87.155 91.804 L 87.155 91.804 L 87.155 91.804 Q 86.83 91.443 86.115 91.443 L 86.115 91.443 L 86.115 91.443 Q 85.312 91.443 84.299 91.936 L 84.299 91.936 L 84 91.191 L 84 91.191 Q 84.475 90.934 85.04 90.787 L 85.04 90.787 L 85.04 90.787 Q 85.605 90.641 86.174 90.641 L 86.174 90.641 L 86.174 90.641 Q 87.322 90.641 87.876 91.15 L 87.876 91.15 L 87.876 91.15 Q 88.43 91.66 88.43 92.785 L 88.43 92.785 L 88.43 97.168 L 88.43 97.168 Z  M 85.512 96.482 L 85.512 96.482 L 85.512 96.482 Q 86.42 96.482 86.938 95.984 L 86.938 95.984 L 86.938 95.984 Q 87.457 95.486 87.457 94.59 L 87.457 94.59 L 87.457 94.01 L 86.484 94.051 L 86.484 94.051 Q 85.324 94.092 84.812 94.411 L 84.812 94.411 L 84.812 94.411 Q 84.299 94.73 84.299 95.404 L 84.299 95.404 L 84.299 95.404 Q 84.299 95.932 84.618 96.207 L 84.618 96.207 L 84.618 96.207 Q 84.937 96.482 85.512 96.482 Z  M 93.469 90.746 L 95.689 90.746 L 95.689 91.361 L 94.5 91.502 L 94.5 91.502 Q 94.664 91.707 94.793 92.038 L 94.793 92.038 L 94.793 92.038 Q 94.922 92.369 94.922 92.785 L 94.922 92.785 L 94.922 92.785 Q 94.922 93.729 94.277 94.291 L 94.277 94.291 L 94.277 94.291 Q 93.633 94.854 92.508 94.854 L 92.508 94.854 L 92.508 94.854 Q 92.221 94.854 91.969 94.807 L 91.969 94.807 L 91.969 94.807 Q 91.348 95.135 91.348 95.633 L 91.348 95.633 L 91.348 95.633 Q 91.348 95.896 91.564 96.022 L 91.564 96.022 L 91.564 96.022 Q 91.781 96.148 92.309 96.148 L 92.309 96.148 L 93.445 96.148 L 93.445 96.148 Q 94.488 96.148 95.048 96.588 L 95.048 96.588 L 95.048 96.588 Q 95.607 97.027 95.607 97.865 L 95.607 97.865 L 95.607 97.865 Q 95.607 98.932 94.752 99.491 L 94.752 99.491 L 94.752 99.491 Q 93.896 100.051 92.256 100.051 L 92.256 100.051 L 92.256 100.051 Q 90.996 100.051 90.313 99.582 L 90.313 99.582 L 90.313 99.582 Q 89.631 99.113 89.631 98.258 L 89.631 98.258 L 89.631 98.258 Q 89.631 97.672 90.006 97.244 L 90.006 97.244 L 90.006 97.244 Q 90.381 96.816 91.061 96.664 L 91.061 96.664 L 91.061 96.664 Q 90.814 96.553 90.647 96.318 L 90.647 96.318 L 90.647 96.318 Q 90.48 96.084 90.48 95.773 L 90.48 95.773 L 90.48 95.773 Q 90.48 95.422 90.668 95.158 L 90.668 95.158 L 90.668 95.158 Q 90.855 94.895 91.26 94.648 L 91.26 94.648 L 91.26 94.648 Q 90.762 94.443 90.448 93.951 L 90.448 93.951 L 90.448 93.951 Q 90.135 93.459 90.135 92.826 L 90.135 92.826 L 90.135 92.826 Q 90.135 91.771 90.768 91.2 L 90.768 91.2 L 90.768 91.2 Q 91.4 90.629 92.561 90.629 L 92.561 90.629 L 92.561 90.629 Q 93.064 90.629 93.469 90.746 L 93.469 90.746 L 93.469 90.746 Z  M 90.568 98.246 L 90.568 98.246 L 90.568 98.246 Q 90.568 98.768 91.008 99.037 L 91.008 99.037 L 91.008 99.037 Q 91.447 99.307 92.268 99.307 L 92.268 99.307 L 92.268 99.307 Q 93.492 99.307 94.081 98.94 L 94.081 98.94 L 94.081 98.94 Q 94.67 98.574 94.67 97.947 L 94.67 97.947 L 94.67 97.947 Q 94.67 97.426 94.348 97.224 L 94.348 97.224 L 94.348 97.224 Q 94.025 97.021 93.135 97.021 L 93.135 97.021 L 91.969 97.021 L 91.969 97.021 Q 91.307 97.021 90.937 97.338 L 90.937 97.338 L 90.937 97.338 Q 90.568 97.654 90.568 98.246 Z  M 91.096 92.803 L 91.096 92.803 L 91.096 92.803 Q 91.096 93.477 91.477 93.822 L 91.477 93.822 L 91.477 93.822 Q 91.857 94.168 92.537 94.168 L 92.537 94.168 L 92.537 94.168 Q 93.961 94.168 93.961 92.785 L 93.961 92.785 L 93.961 92.785 Q 93.961 91.338 92.52 91.338 L 92.52 91.338 L 92.52 91.338 Q 91.834 91.338 91.465 91.707 L 91.465 91.707 L 91.465 91.707 Q 91.096 92.076 91.096 92.803 Z  M 99.721 97.285 L 99.721 97.285 L 99.721 97.285 Q 98.297 97.285 97.474 96.418 L 97.474 96.418 L 97.474 96.418 Q 96.65 95.551 96.65 94.01 L 96.65 94.01 L 96.65 94.01 Q 96.65 92.457 97.415 91.543 L 97.415 91.543 L 97.415 91.543 Q 98.18 90.629 99.469 90.629 L 99.469 90.629 L 99.469 90.629 Q 100.676 90.629 101.379 91.423 L 101.379 91.423 L 101.379 91.423 Q 102.082 92.217 102.082 93.518 L 102.082 93.518 L 102.082 94.133 L 97.658 94.133 L 97.658 94.133 Q 97.687 95.264 98.229 95.85 L 98.229 95.85 L 98.229 95.85 Q 98.771 96.436 99.756 96.436 L 99.756 96.436 L 99.756 96.436 Q 100.793 96.436 101.807 96.002 L 101.807 96.002 L 101.807 96.869 L 101.807 96.869 Q 101.291 97.092 100.831 97.188 L 100.831 97.188 L 100.831 97.188 Q 100.371 97.285 99.721 97.285 Z  M 99.457 91.443 L 99.457 91.443 L 99.457 91.443 Q 98.684 91.443 98.224 91.947 L 98.224 91.947 L 98.224 91.947 Q 97.764 92.451 97.682 93.342 L 97.682 93.342 L 101.039 93.342 L 101.039 93.342 Q 101.039 92.422 100.629 91.933 L 100.629 91.933 L 100.629 91.933 Q 100.219 91.443 99.457 91.443 Z  M 49.295 97.168 L 48.574 97.168 L 48.381 96.254 L 48.334 96.254 L 48.334 96.254 Q 47.854 96.857 47.376 97.071 L 47.376 97.071 L 47.376 97.071 Q 46.898 97.285 46.184 97.285 L 46.184 97.285 L 46.184 97.285 Q 45.229 97.285 44.687 96.793 L 44.687 96.793 L 44.687 96.793 Q 44.145 96.301 44.145 95.393 L 44.145 95.393 L 44.145 95.393 Q 44.145 93.447 47.256 93.354 L 47.256 93.354 L 48.346 93.318 L 48.346 92.92 L 48.346 92.92 Q 48.346 92.164 48.021 91.804 L 48.021 91.804 L 48.021 91.804 Q 47.695 91.443 46.98 91.443 L 46.98 91.443 L 46.98 91.443 Q 46.178 91.443 45.164 91.936 L 45.164 91.936 L 44.865 91.191 L 44.865 91.191 Q 45.34 90.934 45.905 90.787 L 45.905 90.787 L 45.905 90.787 Q 46.471 90.641 47.039 90.641 L 47.039 90.641 L 47.039 90.641 Q 48.187 90.641 48.741 91.15 L 48.741 91.15 L 48.741 91.15 Q 49.295 91.66 49.295 92.785 L 49.295 92.785 L 49.295 97.168 L 49.295 97.168 Z  M 46.377 96.482 L 46.377 96.482 L 46.377 96.482 Q 47.285 96.482 47.804 95.984 L 47.804 95.984 L 47.804 95.984 Q 48.322 95.486 48.322 94.59 L 48.322 94.59 L 48.322 94.01 L 47.35 94.051 L 47.35 94.051 Q 46.189 94.092 45.677 94.411 L 45.677 94.411 L 45.677 94.411 Q 45.164 94.73 45.164 95.404 L 45.164 95.404 L 45.164 95.404 Q 45.164 95.932 45.483 96.207 L 45.483 96.207 L 45.483 96.207 Q 45.803 96.482 46.377 96.482 Z  M 15.27 90.641 L 15.27 90.641 L 15.27 90.641 Q 16.535 90.641 17.235 91.505 L 17.235 91.505 L 17.235 91.505 Q 17.936 92.369 17.936 93.951 L 17.936 93.951 L 17.936 93.951 Q 17.936 95.533 17.229 96.409 L 17.229 96.409 L 17.229 96.409 Q 16.523 97.285 15.27 97.285 L 15.27 97.285 L 15.27 97.285 Q 14.643 97.285 14.124 97.054 L 14.124 97.054 L 14.124 97.054 Q 13.605 96.822 13.254 96.342 L 13.254 96.342 L 13.184 96.342 L 12.979 97.168 L 12.281 97.168 L 12.281 88.051 L 13.254 88.051 L 13.254 90.266 L 13.254 90.266 Q 13.254 91.01 13.207 91.602 L 13.207 91.602 L 13.254 91.602 L 13.254 91.602 Q 13.934 90.641 15.27 90.641 Z  M 15.129 91.455 L 15.129 91.455 L 15.129 91.455 Q 14.133 91.455 13.693 92.026 L 13.693 92.026 L 13.693 92.026 Q 13.254 92.598 13.254 93.951 L 13.254 93.951 L 13.254 93.951 Q 13.254 95.305 13.705 95.888 L 13.705 95.888 L 13.705 95.888 Q 14.156 96.471 15.152 96.471 L 15.152 96.471 L 15.152 96.471 Q 16.049 96.471 16.488 95.817 L 16.488 95.817 L 16.488 95.817 Q 16.928 95.164 16.928 93.939 L 16.928 93.939 L 16.928 93.939 Q 16.928 92.686 16.488 92.07 L 16.488 92.07 L 16.488 92.07 Q 16.049 91.455 15.129 91.455 Z  M 22.564 90.629 L 22.564 90.629 L 22.564 90.629 Q 22.992 90.629 23.332 90.699 L 23.332 90.699 L 23.197 91.602 L 23.197 91.602 Q 22.799 91.514 22.494 91.514 L 22.494 91.514 L 22.494 91.514 Q 21.715 91.514 21.161 92.146 L 21.161 92.146 L 21.161 92.146 Q 20.607 92.779 20.607 93.723 L 20.607 93.723 L 20.607 97.168 L 19.635 97.168 L 19.635 90.746 L 20.437 90.746 L 20.549 91.936 L 20.596 91.936 L 20.596 91.936 Q 20.953 91.309 21.457 90.969 L 21.457 90.969 L 21.457 90.969 Q 21.961 90.629 22.564 90.629 Z  M 25.506 90.746 L 25.506 97.168 L 24.533 97.168 L 24.533 90.746 L 25.506 90.746 L 25.506 90.746 Z  M 24.451 89.006 L 24.451 89.006 L 24.451 89.006 Q 24.451 88.672 24.615 88.517 L 24.615 88.517 L 24.615 88.517 Q 24.779 88.361 25.025 88.361 L 25.025 88.361 L 25.025 88.361 Q 25.26 88.361 25.43 88.52 L 25.43 88.52 L 25.43 88.52 Q 25.6 88.678 25.6 89.006 L 25.6 89.006 L 25.6 89.006 Q 25.6 89.334 25.43 89.495 L 25.43 89.495 L 25.43 89.495 Q 25.26 89.656 25.025 89.656 L 25.025 89.656 L 25.025 89.656 Q 24.779 89.656 24.615 89.495 L 24.615 89.495 L 24.615 89.495 Q 24.451 89.334 24.451 89.006 Z  M 32.936 97.168 L 31.963 97.168 L 31.963 93.014 L 31.963 93.014 Q 31.963 92.229 31.605 91.842 L 31.605 91.842 L 31.605 91.842 Q 31.248 91.455 30.486 91.455 L 30.486 91.455 L 30.486 91.455 Q 29.479 91.455 29.01 92 L 29.01 92 L 29.01 92 Q 28.541 92.545 28.541 93.799 L 28.541 93.799 L 28.541 97.168 L 27.568 97.168 L 27.568 90.746 L 28.359 90.746 L 28.518 91.625 L 28.564 91.625 L 28.564 91.625 Q 28.863 91.15 29.402 90.89 L 29.402 90.89 L 29.402 90.89 Q 29.941 90.629 30.604 90.629 L 30.604 90.629 L 30.604 90.629 Q 31.764 90.629 32.35 91.188 L 32.35 91.188 L 32.35 91.188 Q 32.936 91.748 32.936 92.979 L 32.936 92.979 L 32.936 97.168 L 32.936 97.168 Z  M 37.969 90.746 L 40.189 90.746 L 40.189 91.361 L 39 91.502 L 39 91.502 Q 39.164 91.707 39.293 92.038 L 39.293 92.038 L 39.293 92.038 Q 39.422 92.369 39.422 92.785 L 39.422 92.785 L 39.422 92.785 Q 39.422 93.729 38.777 94.291 L 38.777 94.291 L 38.777 94.291 Q 38.133 94.854 37.008 94.854 L 37.008 94.854 L 37.008 94.854 Q 36.721 94.854 36.469 94.807 L 36.469 94.807 L 36.469 94.807 Q 35.848 95.135 35.848 95.633 L 35.848 95.633 L 35.848 95.633 Q 35.848 95.896 36.064 96.022 L 36.064 96.022 L 36.064 96.022 Q 36.281 96.148 36.809 96.148 L 36.809 96.148 L 37.945 96.148 L 37.945 96.148 Q 38.988 96.148 39.548 96.588 L 39.548 96.588 L 39.548 96.588 Q 40.107 97.027 40.107 97.865 L 40.107 97.865 L 40.107 97.865 Q 40.107 98.932 39.252 99.491 L 39.252 99.491 L 39.252 99.491 Q 38.396 100.051 36.756 100.051 L 36.756 100.051 L 36.756 100.051 Q 35.496 100.051 34.813 99.582 L 34.813 99.582 L 34.813 99.582 Q 34.131 99.113 34.131 98.258 L 34.131 98.258 L 34.131 98.258 Q 34.131 97.672 34.506 97.244 L 34.506 97.244 L 34.506 97.244 Q 34.881 96.816 35.561 96.664 L 35.561 96.664 L 35.561 96.664 Q 35.314 96.553 35.147 96.318 L 35.147 96.318 L 35.147 96.318 Q 34.98 96.084 34.98 95.773 L 34.98 95.773 L 34.98 95.773 Q 34.98 95.422 35.168 95.158 L 35.168 95.158 L 35.168 95.158 Q 35.355 94.895 35.76 94.648 L 35.76 94.648 L 35.76 94.648 Q 35.262 94.443 34.948 93.951 L 34.948 93.951 L 34.948 93.951 Q 34.635 93.459 34.635 92.826 L 34.635 92.826 L 34.635 92.826 Q 34.635 91.771 35.268 91.2 L 35.268 91.2 L 35.268 91.2 Q 35.9 90.629 37.061 90.629 L 37.061 90.629 L 37.061 90.629 Q 37.564 90.629 37.969 90.746 L 37.969 90.746 L 37.969 90.746 Z  M 35.068 98.246 L 35.068 98.246 L 35.068 98.246 Q 35.068 98.768 35.508 99.037 L 35.508 99.037 L 35.508 99.037 Q 35.947 99.307 36.768 99.307 L 36.768 99.307 L 36.768 99.307 Q 37.992 99.307 38.581 98.94 L 38.581 98.94 L 38.581 98.94 Q 39.17 98.574 39.17 97.947 L 39.17 97.947 L 39.17 97.947 Q 39.17 97.426 38.848 97.224 L 38.848 97.224 L 38.848 97.224 Q 38.525 97.021 37.635 97.021 L 37.635 97.021 L 36.469 97.021 L 36.469 97.021 Q 35.807 97.021 35.437 97.338 L 35.437 97.338 L 35.437 97.338 Q 35.068 97.654 35.068 98.246 Z  M 35.596 92.803 L 35.596 92.803 L 35.596 92.803 Q 35.596 93.477 35.977 93.822 L 35.977 93.822 L 35.977 93.822 Q 36.357 94.168 37.037 94.168 L 37.037 94.168 L 37.037 94.168 Q 38.461 94.168 38.461 92.785 L 38.461 92.785 L 38.461 92.785 Q 38.461 91.338 37.02 91.338 L 37.02 91.338 L 37.02 91.338 Q 36.334 91.338 35.965 91.707 L 35.965 91.707 L 35.965 91.707 Q 35.596 92.076 35.596 92.803 Z  M 96.586 80.826 L 95.432 80.826 L 94.254 77.059 L 94.254 77.059 Q 94.143 76.713 93.838 75.488 L 93.838 75.488 L 93.791 75.488 L 93.791 75.488 Q 93.557 76.514 93.381 77.07 L 93.381 77.07 L 92.168 80.826 L 91.043 80.826 L 89.291 74.404 L 90.311 74.404 L 90.311 74.404 Q 90.932 76.824 91.257 78.09 L 91.257 78.09 L 91.257 78.09 Q 91.582 79.355 91.629 79.795 L 91.629 79.795 L 91.676 79.795 L 91.676 79.795 Q 91.74 79.461 91.884 78.931 L 91.884 78.931 L 91.884 78.931 Q 92.027 78.4 92.133 78.09 L 92.133 78.09 L 93.311 74.404 L 94.365 74.404 L 95.514 78.09 L 95.514 78.09 Q 95.842 79.098 95.959 79.783 L 95.959 79.783 L 96.006 79.783 L 96.006 79.783 Q 96.029 79.572 96.132 79.133 L 96.132 79.133 L 96.132 79.133 Q 96.234 78.693 97.354 74.404 L 97.354 74.404 L 98.361 74.404 L 96.586 80.826 L 96.586 80.826 Z  M 100.494 74.404 L 100.494 80.826 L 99.521 80.826 L 99.521 74.404 L 100.494 74.404 L 100.494 74.404 Z  M 99.439 72.664 L 99.439 72.664 L 99.439 72.664 Q 99.439 72.33 99.604 72.175 L 99.604 72.175 L 99.604 72.175 Q 99.768 72.02 100.014 72.02 L 100.014 72.02 L 100.014 72.02 Q 100.248 72.02 100.418 72.178 L 100.418 72.178 L 100.418 72.178 Q 100.588 72.336 100.588 72.664 L 100.588 72.664 L 100.588 72.664 Q 100.588 72.992 100.418 73.153 L 100.418 73.153 L 100.418 73.153 Q 100.248 73.314 100.014 73.314 L 100.014 73.314 L 100.014 73.314 Q 99.768 73.314 99.604 73.153 L 99.604 73.153 L 99.604 73.153 Q 99.439 72.992 99.439 72.664 Z  M 103.529 71.709 L 103.529 80.826 L 102.557 80.826 L 102.557 71.709 L 103.529 71.709 L 103.529 71.709 Z  M 106.564 71.709 L 106.564 80.826 L 105.592 80.826 L 105.592 71.709 L 106.564 71.709 L 106.564 71.709 Z  M 43.576 75.98 L 47.15 80.826 L 45.979 80.826 L 42.855 76.672 L 41.959 77.469 L 41.959 80.826 L 40.963 80.826 L 40.963 72.26 L 41.959 72.26 L 41.959 76.508 L 45.844 72.26 L 47.021 72.26 L 43.576 75.98 L 43.576 75.98 Z  M 53.725 77.609 L 53.725 77.609 L 53.725 77.609 Q 53.725 79.18 52.934 80.062 L 52.934 80.062 L 52.934 80.062 Q 52.143 80.943 50.748 80.943 L 50.748 80.943 L 50.748 80.943 Q 49.887 80.943 49.219 80.539 L 49.219 80.539 L 49.219 80.539 Q 48.551 80.135 48.187 79.379 L 48.187 79.379 L 48.187 79.379 Q 47.824 78.623 47.824 77.609 L 47.824 77.609 L 47.824 77.609 Q 47.824 76.039 48.609 75.163 L 48.609 75.163 L 48.609 75.163 Q 49.395 74.287 50.789 74.287 L 50.789 74.287 L 50.789 74.287 Q 52.137 74.287 52.931 75.184 L 52.931 75.184 L 52.931 75.184 Q 53.725 76.08 53.725 77.609 Z  M 48.832 77.609 L 48.832 77.609 L 48.832 77.609 Q 48.832 78.84 49.324 79.484 L 49.324 79.484 L 49.324 79.484 Q 49.816 80.129 50.771 80.129 L 50.771 80.129 L 50.771 80.129 Q 51.727 80.129 52.222 79.487 L 52.222 79.487 L 52.222 79.487 Q 52.717 78.846 52.717 77.609 L 52.717 77.609 L 52.717 77.609 Q 52.717 76.385 52.222 75.749 L 52.222 75.749 L 52.222 75.749 Q 51.727 75.113 50.76 75.113 L 50.76 75.113 L 50.76 75.113 Q 49.805 75.113 49.318 75.74 L 49.318 75.74 L 49.318 75.74 Q 48.832 76.367 48.832 77.609 Z  M 56.402 71.709 L 56.402 80.826 L 55.43 80.826 L 55.43 71.709 L 56.402 71.709 L 56.402 71.709 Z  M 59.379 77.539 L 59.426 77.539 L 59.426 77.539 Q 59.678 77.182 60.193 76.602 L 60.193 76.602 L 62.268 74.404 L 63.422 74.404 L 60.82 77.141 L 63.604 80.826 L 62.426 80.826 L 60.158 77.791 L 59.426 78.424 L 59.426 80.826 L 58.465 80.826 L 58.465 71.709 L 59.426 71.709 L 59.426 76.543 L 59.426 76.543 Q 59.426 76.865 59.379 77.539 L 59.379 77.539 L 59.379 77.539 Z  M 70.307 77.609 L 70.307 77.609 L 70.307 77.609 Q 70.307 79.18 69.516 80.062 L 69.516 80.062 L 69.516 80.062 Q 68.725 80.943 67.33 80.943 L 67.33 80.943 L 67.33 80.943 Q 66.469 80.943 65.801 80.539 L 65.801 80.539 L 65.801 80.539 Q 65.133 80.135 64.77 79.379 L 64.77 79.379 L 64.77 79.379 Q 64.406 78.623 64.406 77.609 L 64.406 77.609 L 64.406 77.609 Q 64.406 76.039 65.191 75.163 L 65.191 75.163 L 65.191 75.163 Q 65.977 74.287 67.371 74.287 L 67.371 74.287 L 67.371 74.287 Q 68.719 74.287 69.513 75.184 L 69.513 75.184 L 69.513 75.184 Q 70.307 76.08 70.307 77.609 Z  M 65.414 77.609 L 65.414 77.609 L 65.414 77.609 Q 65.414 78.84 65.906 79.484 L 65.906 79.484 L 65.906 79.484 Q 66.398 80.129 67.354 80.129 L 67.354 80.129 L 67.354 80.129 Q 68.309 80.129 68.804 79.487 L 68.804 79.487 L 68.804 79.487 Q 69.299 78.846 69.299 77.609 L 69.299 77.609 L 69.299 77.609 Q 69.299 76.385 68.804 75.749 L 68.804 75.749 L 68.804 75.749 Q 68.309 75.113 67.342 75.113 L 67.342 75.113 L 67.342 75.113 Q 66.387 75.113 65.9 75.74 L 65.9 75.74 L 65.9 75.74 Q 65.414 76.367 65.414 77.609 Z  M 76.154 79.074 L 76.154 79.074 L 76.154 79.074 Q 76.154 79.971 75.486 80.457 L 75.486 80.457 L 75.486 80.457 Q 74.818 80.943 73.611 80.943 L 73.611 80.943 L 73.611 80.943 Q 72.334 80.943 71.619 80.539 L 71.619 80.539 L 71.619 79.637 L 71.619 79.637 Q 72.082 79.871 72.612 80.006 L 72.612 80.006 L 72.612 80.006 Q 73.143 80.141 73.635 80.141 L 73.635 80.141 L 73.635 80.141 Q 74.396 80.141 74.807 79.897 L 74.807 79.897 L 74.807 79.897 Q 75.217 79.654 75.217 79.156 L 75.217 79.156 L 75.217 79.156 Q 75.217 78.781 74.892 78.515 L 74.892 78.515 L 74.892 78.515 Q 74.566 78.248 73.623 77.885 L 73.623 77.885 L 73.623 77.885 Q 72.727 77.551 72.349 77.302 L 72.349 77.302 L 72.349 77.302 Q 71.971 77.053 71.786 76.736 L 71.786 76.736 L 71.786 76.736 Q 71.602 76.42 71.602 75.98 L 71.602 75.98 L 71.602 75.98 Q 71.602 75.195 72.24 74.741 L 72.24 74.741 L 72.24 74.741 Q 72.879 74.287 73.992 74.287 L 73.992 74.287 L 73.992 74.287 Q 75.029 74.287 76.02 74.709 L 76.02 74.709 L 75.674 75.5 L 75.674 75.5 Q 74.707 75.102 73.922 75.102 L 73.922 75.102 L 73.922 75.102 Q 73.23 75.102 72.879 75.318 L 72.879 75.318 L 72.879 75.318 Q 72.527 75.535 72.527 75.916 L 72.527 75.916 L 72.527 75.916 Q 72.527 76.174 72.659 76.355 L 72.659 76.355 L 72.659 76.355 Q 72.791 76.537 73.084 76.701 L 73.084 76.701 L 73.084 76.701 Q 73.377 76.865 74.209 77.176 L 74.209 77.176 L 74.209 77.176 Q 75.352 77.592 75.753 78.014 L 75.753 78.014 L 75.753 78.014 Q 76.154 78.436 76.154 79.074 Z  M 78.65 77.539 L 78.697 77.539 L 78.697 77.539 Q 78.949 77.182 79.465 76.602 L 79.465 76.602 L 81.539 74.404 L 82.693 74.404 L 80.092 77.141 L 82.875 80.826 L 81.697 80.826 L 79.43 77.791 L 78.697 78.424 L 78.697 80.826 L 77.736 80.826 L 77.736 71.709 L 78.697 71.709 L 78.697 76.543 L 78.697 76.543 Q 78.697 76.865 78.65 77.539 L 78.65 77.539 L 78.65 77.539 Z  M 85.008 74.404 L 85.008 80.826 L 84.035 80.826 L 84.035 74.404 L 85.008 74.404 L 85.008 74.404 Z  M 83.953 72.664 L 83.953 72.664 L 83.953 72.664 Q 83.953 72.33 84.117 72.175 L 84.117 72.175 L 84.117 72.175 Q 84.281 72.02 84.527 72.02 L 84.527 72.02 L 84.527 72.02 Q 84.762 72.02 84.932 72.178 L 84.932 72.178 L 84.932 72.178 Q 85.102 72.336 85.102 72.664 L 85.102 72.664 L 85.102 72.664 Q 85.102 72.992 84.932 73.153 L 84.932 73.153 L 84.932 73.153 Q 84.762 73.314 84.527 73.314 L 84.527 73.314 L 84.527 73.314 Q 84.281 73.314 84.117 73.153 L 84.117 73.153 L 84.117 73.153 Q 83.953 72.992 83.953 72.664 Z  M 12.428 80.826 L 12.428 72.26 L 14.848 72.26 L 14.848 72.26 Q 16.553 72.26 17.314 72.77 L 17.314 72.77 L 17.314 72.77 Q 18.076 73.279 18.076 74.381 L 18.076 74.381 L 18.076 74.381 Q 18.076 75.143 17.651 75.638 L 17.651 75.638 L 17.651 75.638 Q 17.227 76.133 16.412 76.279 L 16.412 76.279 L 16.412 76.338 L 16.412 76.338 Q 18.363 76.672 18.363 78.389 L 18.363 78.389 L 18.363 78.389 Q 18.363 79.537 17.587 80.182 L 17.587 80.182 L 17.587 80.182 Q 16.811 80.826 15.416 80.826 L 15.416 80.826 L 12.428 80.826 L 12.428 80.826 Z  M 13.424 73.121 L 13.424 75.928 L 15.064 75.928 L 15.064 75.928 Q 16.119 75.928 16.582 75.597 L 16.582 75.597 L 16.582 75.597 Q 17.045 75.266 17.045 74.48 L 17.045 74.48 L 17.045 74.48 Q 17.045 73.76 16.529 73.44 L 16.529 73.44 L 16.529 73.44 Q 16.014 73.121 14.889 73.121 L 14.889 73.121 L 13.424 73.121 L 13.424 73.121 Z  M 15.129 76.771 L 13.424 76.771 L 13.424 79.977 L 15.211 79.977 L 15.211 79.977 Q 16.248 79.977 16.772 79.575 L 16.772 79.575 L 16.772 79.575 Q 17.297 79.174 17.297 78.318 L 17.297 78.318 L 17.297 78.318 Q 17.297 77.521 16.761 77.146 L 16.761 77.146 L 16.761 77.146 Q 16.225 76.771 15.129 76.771 L 15.129 76.771 L 15.129 76.771 Z  M 21.029 71.709 L 21.029 80.826 L 20.057 80.826 L 20.057 71.709 L 21.029 71.709 L 21.029 71.709 Z  M 27.762 80.826 L 27.041 80.826 L 26.848 79.912 L 26.801 79.912 L 26.801 79.912 Q 26.32 80.516 25.843 80.729 L 25.843 80.729 L 25.843 80.729 Q 25.365 80.943 24.65 80.943 L 24.65 80.943 L 24.65 80.943 Q 23.695 80.943 23.153 80.451 L 23.153 80.451 L 23.153 80.451 Q 22.611 79.959 22.611 79.051 L 22.611 79.051 L 22.611 79.051 Q 22.611 77.105 25.723 77.012 L 25.723 77.012 L 26.812 76.977 L 26.812 76.578 L 26.812 76.578 Q 26.812 75.822 26.487 75.462 L 26.487 75.462 L 26.487 75.462 Q 26.162 75.102 25.447 75.102 L 25.447 75.102 L 25.447 75.102 Q 24.645 75.102 23.631 75.594 L 23.631 75.594 L 23.332 74.85 L 23.332 74.85 Q 23.807 74.592 24.372 74.445 L 24.372 74.445 L 24.372 74.445 Q 24.937 74.299 25.506 74.299 L 25.506 74.299 L 25.506 74.299 Q 26.654 74.299 27.208 74.809 L 27.208 74.809 L 27.208 74.809 Q 27.762 75.318 27.762 76.443 L 27.762 76.443 L 27.762 80.826 L 27.762 80.826 Z  M 24.844 80.141 L 24.844 80.141 L 24.844 80.141 Q 25.752 80.141 26.271 79.643 L 26.271 79.643 L 26.271 79.643 Q 26.789 79.145 26.789 78.248 L 26.789 78.248 L 26.789 77.668 L 25.816 77.709 L 25.816 77.709 Q 24.656 77.75 24.144 78.069 L 24.144 78.069 L 24.144 78.069 Q 23.631 78.389 23.631 79.063 L 23.631 79.063 L 23.631 79.063 Q 23.631 79.59 23.95 79.865 L 23.95 79.865 L 23.95 79.865 Q 24.27 80.141 24.844 80.141 Z  M 30.738 74.404 L 30.738 80.826 L 29.766 80.826 L 29.766 74.404 L 30.738 74.404 L 30.738 74.404 Z  M 29.684 72.664 L 29.684 72.664 L 29.684 72.664 Q 29.684 72.33 29.848 72.175 L 29.848 72.175 L 29.848 72.175 Q 30.012 72.02 30.258 72.02 L 30.258 72.02 L 30.258 72.02 Q 30.492 72.02 30.662 72.178 L 30.662 72.178 L 30.662 72.178 Q 30.832 72.336 30.832 72.664 L 30.832 72.664 L 30.832 72.664 Q 30.832 72.992 30.662 73.153 L 30.662 73.153 L 30.662 73.153 Q 30.492 73.314 30.258 73.314 L 30.258 73.314 L 30.258 73.314 Q 30.012 73.314 29.848 73.153 L 29.848 73.153 L 29.848 73.153 Q 29.684 72.992 29.684 72.664 Z  M 35.73 74.287 L 35.73 74.287 L 35.73 74.287 Q 36.158 74.287 36.498 74.357 L 36.498 74.357 L 36.363 75.26 L 36.363 75.26 Q 35.965 75.172 35.66 75.172 L 35.66 75.172 L 35.66 75.172 Q 34.881 75.172 34.327 75.805 L 34.327 75.805 L 34.327 75.805 Q 33.773 76.438 33.773 77.381 L 33.773 77.381 L 33.773 80.826 L 32.801 80.826 L 32.801 74.404 L 33.604 74.404 L 33.715 75.594 L 33.762 75.594 L 33.762 75.594 Q 34.119 74.967 34.623 74.627 L 34.623 74.627 L 34.623 74.627 Q 35.127 74.287 35.73 74.287 Z " fill="rgb(0,0,0)"/></g></svg>